<svg xmlns="http://www.w3.org/2000/svg" xmlns:xlink="http://www.w3.org/1999/xlink" width="750" height="500" viewBox="0 0 750 500">
  <defs>
    <clipPath id="clip-bg">
      <rect width="750" height="500"/>
    </clipPath>
  </defs>
  <g id="bg" clip-path="url(#clip-bg)">
    <rect width="750" height="500" fill="#fff"/>
    <g id="BACKGROUND">
      <g id="Group_2" data-name="Group 2">
        <rect id="Rectangle_1" data-name="Rectangle 1" width="750" height="500" fill="#050d28"/>
        <g id="Group_1" data-name="Group 1" style="mix-blend-mode: overlay;isolation: isolate">
          <rect id="Rectangle_2" data-name="Rectangle 2" width="750" height="46.222" fill="#050d28" opacity="0.9"/>
          <rect id="Rectangle_3" data-name="Rectangle 3" width="750" height="46.222" transform="translate(0 46.222)" fill="#050d28" opacity="0.8"/>
          <rect id="Rectangle_4" data-name="Rectangle 4" width="750" height="46.222" transform="translate(0 92.444)" fill="#050d28" opacity="0.7"/>
          <rect id="Rectangle_5" data-name="Rectangle 5" width="750" height="46.222" transform="translate(0 138.666)" fill="#050d28" opacity="0.6"/>
          <rect id="Rectangle_6" data-name="Rectangle 6" width="750" height="46.222" transform="translate(0 184.888)" fill="#050d28" opacity="0.5"/>
          <rect id="Rectangle_7" data-name="Rectangle 7" width="750" height="46.222" transform="translate(0 231.11)" fill="#050d28" opacity="0.4"/>
          <rect id="Rectangle_8" data-name="Rectangle 8" width="750" height="46.222" transform="translate(0 277.332)" fill="#050d28" opacity="0.3"/>
          <rect id="Rectangle_9" data-name="Rectangle 9" width="750" height="46.222" transform="translate(0 323.553)" fill="#050d28" opacity="0.2"/>
          <rect id="Rectangle_10" data-name="Rectangle 10" width="750" height="46.222" transform="translate(0 369.776)" fill="#050d28" opacity="0.1"/>
        </g>
      </g>
    </g>
    <g id="OBJECTS">
      <g id="Group_176" data-name="Group 176">
        <g id="Group_175" data-name="Group 175">
          <g id="Group_17" data-name="Group 17">
            <g id="Group_15" data-name="Group 15">
              <g id="Group_5" data-name="Group 5">
                <g id="Group_3" data-name="Group 3" opacity="0.3">
                  <path id="Path_1" data-name="Path 1" d="M551.926,388.363l-4.775,12.4H192.877l4.775-12.4Z" fill="#231f20" opacity="0.9"/>
                  <path id="Path_2" data-name="Path 2" d="M547.151,400.767l-4.775,12.4H188.1l4.775-12.4Z" fill="#231f20" opacity="0.8"/>
                  <path id="Path_3" data-name="Path 3" d="M542.376,413.171l-4.775,12.4H183.328l4.775-12.4Z" fill="#231f20" opacity="0.7"/>
                  <path id="Path_4" data-name="Path 4" d="M537.6,425.575l-4.775,12.4H178.553l4.775-12.4Z" fill="#231f20" opacity="0.6"/>
                  <path id="Path_5" data-name="Path 5" d="M532.827,437.979l-4.775,12.4H173.778l4.775-12.4Z" fill="#231f20" opacity="0.5"/>
                  <path id="Path_6" data-name="Path 6" d="M528.052,450.383l-4.775,12.4H169l4.775-12.4Z" fill="#231f20" opacity="0.4"/>
                  <path id="Path_7" data-name="Path 7" d="M523.277,462.788l-4.775,12.4H164.229l4.775-12.4Z" fill="#231f20" opacity="0.3"/>
                  <path id="Path_8" data-name="Path 8" d="M518.5,475.192l-4.775,12.4H159.454l4.775-12.4Z" fill="#231f20" opacity="0.2"/>
                  <path id="Path_9" data-name="Path 9" d="M513.728,487.6,508.953,500H154.679l4.775-12.4Z" fill="#231f20" opacity="0.1"/>
                </g>
                <g id="Group_4" data-name="Group 4" opacity="0.3">
                  <path id="Path_10" data-name="Path 10" d="M198.074,388.363l4.775,12.4H557.123l-4.775-12.4Z" fill="#231f20" opacity="0.9"/>
                  <path id="Path_11" data-name="Path 11" d="M202.849,400.767l4.775,12.4H561.9l-4.775-12.4Z" fill="#231f20" opacity="0.8"/>
                  <path id="Path_12" data-name="Path 12" d="M207.624,413.171l4.775,12.4H566.672l-4.775-12.4Z" fill="#231f20" opacity="0.7"/>
                  <path id="Path_13" data-name="Path 13" d="M212.4,425.575l4.775,12.4H571.447l-4.775-12.4Z" fill="#231f20" opacity="0.6"/>
                  <path id="Path_14" data-name="Path 14" d="M217.173,437.979l4.775,12.4H576.222l-4.775-12.4Z" fill="#231f20" opacity="0.5"/>
                  <path id="Path_15" data-name="Path 15" d="M221.948,450.383l4.775,12.4H581l-4.775-12.4Z" fill="#231f20" opacity="0.4"/>
                  <path id="Path_16" data-name="Path 16" d="M226.723,462.788l4.775,12.4H585.771L581,462.788Z" fill="#231f20" opacity="0.3"/>
                  <path id="Path_17" data-name="Path 17" d="M231.5,475.192l4.775,12.4H590.546l-4.775-12.4Z" fill="#231f20" opacity="0.2"/>
                  <path id="Path_18" data-name="Path 18" d="M236.272,487.6l4.775,12.4H595.321l-4.775-12.4Z" fill="#231f20" opacity="0.1"/>
                </g>
              </g>
              <path id="Path_19" data-name="Path 19" d="M553.625,388.363v.7h-.01a1.718,1.718,0,0,1-1.718,1.683H198.1a1.716,1.716,0,0,1-1.71-1.736h-.009v-.643Z" fill="#414042"/>
              <path id="Path_20" data-name="Path 20" d="M553.627,388.359v.7h-.009a1.338,1.338,0,0,1-.035.265H196.425a1.325,1.325,0,0,1-.035-.318h-.009v-.643Z"/>
              <path id="Path_21" data-name="Path 21" d="M555.475,380.334v6.346h-.009a1.729,1.729,0,0,1-1.736,1.683H196.264a1.724,1.724,0,0,1-1.727-1.736h-.009v-6.293a1.736,1.736,0,0,0,1.736,1.754H553.73A1.738,1.738,0,0,0,555.475,380.334Z" fill="#a7a9ac"/>
              <g id="Group_6" data-name="Group 6">
                <path id="Path_22" data-name="Path 22" d="M553.73,382.088H196.264a1.735,1.735,0,0,1-1.163-3.023l38.362-34.722a9.2,9.2,0,0,1,5.3-2.353c.3-.027.6-.045.908-.045H509.331a8.92,8.92,0,0,1,2.168.265,9.207,9.207,0,0,1,3.948,2.053l39.438,34.785A1.739,1.739,0,0,1,553.73,382.088Z" fill="#f1f2f2"/>
              </g>
              <path id="Rectangle_11" data-name="Rectangle 11" d="M9.448,0H265.4a9.448,9.448,0,0,1,9.448,9.448V183.257a4.052,4.052,0,0,1-4.052,4.052H4.052A4.052,4.052,0,0,1,0,183.257V9.448A9.448,9.448,0,0,1,9.448,0Z" transform="translate(237.616 154.639)" fill="#d1d3d4"/>
              <path id="Rectangle_12" data-name="Rectangle 12" d="M7.448,0H181.732a2.052,2.052,0,0,1,2.052,2.052V269.273a2.052,2.052,0,0,1-2.052,2.052H7.447A7.447,7.447,0,0,1,0,263.878V7.448A7.448,7.448,0,0,1,7.448,0Z" transform="translate(510.704 156.402) rotate(90)" fill="#231f20"/>
              <path id="Path_23" data-name="Path 23" d="M501.432,361.043H248.5l13.733-16.965H487.184Z" fill="#414042"/>
              <g id="Group_8" data-name="Group 8">
                <g id="Group_7" data-name="Group 7">
                  <path id="Path_24" data-name="Path 24" d="M501.435,361.043h-.908L486.606,345.29H262.861L249.4,361.043h-.89l13.73-16.965H487.184Z" fill="#fff"/>
                </g>
                <path id="Path_25" data-name="Path 25" d="M262.237,344.078l.624,1.212H486.606l.578-1.212Z" fill="#e6e7e8"/>
              </g>
              <path id="Path_26" data-name="Path 26" d="M435.776,381.207H314.306l9.841-19.191H425.935Z" fill="#d1d3d4"/>
              <path id="Path_27" data-name="Path 27" d="M421.407,367.665h0a.431.431,0,0,1-.431.431H329.024a.431.431,0,0,1-.431-.431h0a.431.431,0,0,1,.431-.431h91.952A.431.431,0,0,1,421.407,367.665Z" fill="#a7a9ac" opacity="0.4"/>
              <g id="Group_9" data-name="Group 9">
                <path id="Path_28" data-name="Path 28" d="M435.779,381.207l-10.725-18.181H325.028L314.3,381.207l9.844-19.194H425.935Z" fill="#fff"/>
              </g>
              <path id="Path_29" data-name="Path 29" d="M505.1,168.549v159.5a2.089,2.089,0,0,1-.238.987,2.192,2.192,0,0,1-1.974,1.225H247.187a2.219,2.219,0,0,1-2.212-2.212v-159.5a2.213,2.213,0,0,1,2.212-2.212H502.892A2.208,2.208,0,0,1,505.1,168.549Z" fill="#008dd2" opacity="0.6"/>
              <rect id="Rectangle_13" data-name="Rectangle 13" width="253.078" height="156.868" rx="1.348" transform="translate(248.501 169.862)" fill="#050d28"/>
              <g id="Group_10" data-name="Group 10" opacity="0.7" style="mix-blend-mode: overlay;isolation: isolate">
                <path id="Path_30" data-name="Path 30" d="M501.579,316.288v9.094a1.343,1.343,0,0,1-1.349,1.349H249.849a1.342,1.342,0,0,1-1.348-1.349v-9.094Z" fill="#f1f0db" opacity="0.9"/>
                <rect id="Rectangle_14" data-name="Rectangle 14" width="253.078" height="13.968" transform="translate(248.501 302.319)" fill="#f1f0db" opacity="0.8"/>
                <rect id="Rectangle_15" data-name="Rectangle 15" width="253.078" height="13.968" transform="translate(248.501 288.351)" fill="#f1f0db" opacity="0.7"/>
                <rect id="Rectangle_16" data-name="Rectangle 16" width="253.078" height="13.968" transform="translate(248.501 274.383)" fill="#f1f0db" opacity="0.6"/>
                <rect id="Rectangle_17" data-name="Rectangle 17" width="253.078" height="13.968" transform="translate(248.501 260.414)" fill="#f1f0db" opacity="0.5"/>
                <rect id="Rectangle_18" data-name="Rectangle 18" width="253.078" height="13.968" transform="translate(248.501 246.446)" fill="#f1f0db" opacity="0.4"/>
                <rect id="Rectangle_19" data-name="Rectangle 19" width="253.078" height="13.968" transform="translate(248.501 232.478)" fill="#f1f0db" opacity="0.3"/>
                <rect id="Rectangle_20" data-name="Rectangle 20" width="253.078" height="13.96" transform="translate(248.501 218.518)" fill="#f1f0db" opacity="0.2"/>
                <rect id="Rectangle_21" data-name="Rectangle 21" width="253.078" height="13.968" transform="translate(248.501 204.55)" fill="#f1f0db" opacity="0.1"/>
              </g>
              <g id="Group_14" data-name="Group 14">
                <g id="Group_12" data-name="Group 12">
                  <g id="Group_11" data-name="Group 11">
                    <path id="Path_31" data-name="Path 31" d="M494.9,342.554H474.851a.605.605,0,0,1-.606-.6h0a.606.606,0,0,1,.606-.606H494.9a.606.606,0,0,1,.606.606h0A.605.605,0,0,1,494.9,342.554Z" fill="#808285"/>
                  </g>
                  <path id="Path_32" data-name="Path 32" d="M495.5,341.945a.761.761,0,0,1-.018.15.6.6,0,0,0-.582-.467H474.855a.606.606,0,0,0-.59.467.761.761,0,0,1-.018-.15.6.6,0,0,1,.608-.6H494.9A.6.6,0,0,1,495.5,341.945Z" fill="#fff" opacity="0.5"/>
                </g>
                <g id="Group_13" data-name="Group 13">
                  <path id="Path_33" data-name="Path 33" d="M275.231,342.554H255.182a.605.605,0,0,1-.606-.6h0a.606.606,0,0,1,.606-.606h20.049a.606.606,0,0,1,.606.606h0A.605.605,0,0,1,275.231,342.554Z" fill="#808285"/>
                  <path id="Path_34" data-name="Path 34" d="M275.835,341.945a.761.761,0,0,1-.018.15.605.605,0,0,0-.59-.467H255.178a.6.6,0,0,0-.582.467.762.762,0,0,1-.018-.15.6.6,0,0,1,.6-.6h20.049A.6.6,0,0,1,275.835,341.945Z" fill="#fff" opacity="0.5"/>
                </g>
              </g>
              <path id="Path_35" data-name="Path 35" d="M554.594,384.782v1.7l-.009.158a.847.847,0,0,1-.855.837H196.264a.819.819,0,0,1-.829-.7l-.017-.167Z" fill="#231f20" opacity="0.6" style="mix-blend-mode: overlay;isolation: isolate"/>
              <path id="Path_36" data-name="Path 36" d="M555.246,381.207a1.707,1.707,0,0,1-1.516.881H196.264a1.666,1.666,0,0,1-1.5-.881Z" fill="#fff"/>
              <path id="Path_37" data-name="Path 37" d="M398.84,384.25h-47.6a3.042,3.042,0,0,1-3.043-3.043h53.685A3.043,3.043,0,0,1,398.84,384.25Z" fill="#414042"/>
            </g>
            <g id="Group_16" data-name="Group 16" opacity="0.4">
              <path id="Path_38" data-name="Path 38" d="M511.37,342.213l-1.6,4.089H240.269l-1.639-4.309c.3-.027.6-.044.908-.044H509.2A8.918,8.918,0,0,1,511.37,342.213Z" fill="#231f20" opacity="0.9"/>
              <path id="Path_39" data-name="Path 39" d="M509.775,346.3l-1.7,4.362H241.935l-1.666-4.362Z" fill="#231f20" opacity="0.8"/>
              <path id="Path_40" data-name="Path 40" d="M508.074,350.664l-1.7,4.354H243.592l-1.657-4.354Z" fill="#231f20" opacity="0.7"/>
              <path id="Path_41" data-name="Path 41" d="M506.373,355.018l-1.71,4.362H245.249l-1.657-4.362Z" fill="#231f20" opacity="0.6"/>
              <path id="Path_42" data-name="Path 42" d="M504.663,359.38l-1.7,4.354H246.905l-1.657-4.354Z" fill="#231f20" opacity="0.5"/>
              <path id="Path_43" data-name="Path 43" d="M502.962,363.734l-1.7,4.362H248.571l-1.666-4.362Z" fill="#231f20" opacity="0.4"/>
              <path id="Path_44" data-name="Path 44" d="M501.262,368.1l-1.7,4.354H250.228l-1.657-4.354Z" fill="#231f20" opacity="0.3"/>
              <path id="Path_45" data-name="Path 45" d="M499.561,372.45l-1.7,4.362H251.885l-1.657-4.362Z" fill="#231f20" opacity="0.2"/>
              <path id="Path_46" data-name="Path 46" d="M497.86,376.812l-1.7,4.353H253.541l-1.657-4.353Z" fill="#231f20" opacity="0.1"/>
            </g>
          </g>
          <g id="Group_21" data-name="Group 21">
            <g id="Group_20" data-name="Group 20">
              <g id="Group_19" data-name="Group 19">
                <g id="Group_18" data-name="Group 18">
                  <path id="Path_47" data-name="Path 47" d="M317.688,251l9.569,8.249-.928,2.928L313.363,251l13.518-11.65,2.163,1.862Z" fill="#fff"/>
                  <path id="Path_48" data-name="Path 48" d="M356.651,251l-13.518,11.652-2.166-1.864L352.325,251l-9.96-8.585.926-2.928Z" fill="#fff"/>
                  <path id="Path_49" data-name="Path 49" d="M330.887,270.634h-2.981l10.719-39.258h2.981Z" fill="#fff"/>
                </g>
              </g>
              <text id="CMS" transform="translate(376.633 265.796)" fill="#fff" font-size="44.09" font-family="BebasNeue-Bold, Bebas Neue" letter-spacing="0.02em" font-weight="700"><tspan x="0" y="0">CMS</tspan></text>
            </g>
          </g>
          <g id="Group_39" data-name="Group 39">
            <g id="Group_28" data-name="Group 28">
              <g id="Group_27" data-name="Group 27">
                <g id="Group_22" data-name="Group 22">
                  <path id="Path_50" data-name="Path 50" d="M195.7,291.464a2.042,2.042,0,1,0-2.809.667A2.042,2.042,0,0,0,195.7,291.464Z" fill="#fff"/>
                  <path id="Path_51" data-name="Path 51" d="M211.341,291.464a2.041,2.041,0,1,0-2.809.667A2.041,2.041,0,0,0,211.341,291.464Z" fill="#fff"/>
                  <path id="Path_52" data-name="Path 52" d="M226.985,291.464a2.041,2.041,0,1,0-2.809.667A2.041,2.041,0,0,0,226.985,291.464Z" fill="#fff"/>
                </g>
                <g id="Group_23" data-name="Group 23">
                  <path id="Path_53" data-name="Path 53" d="M164.408,291.464a2.042,2.042,0,1,0-2.809.667A2.042,2.042,0,0,0,164.408,291.464Z" fill="#fff"/>
                  <path id="Path_54" data-name="Path 54" d="M180.052,291.464a2.041,2.041,0,1,0-2.809.667A2.041,2.041,0,0,0,180.052,291.464Z" fill="#fff"/>
                </g>
                <g id="Group_24" data-name="Group 24">
                  <path id="Path_55" data-name="Path 55" d="M148.764,291.464a2.042,2.042,0,1,0-2.81.667A2.042,2.042,0,0,0,148.764,291.464Z" fill="#fff"/>
                </g>
                <g id="Group_25" data-name="Group 25">
                  <path id="Path_56" data-name="Path 56" d="M148.764,306.054a2.042,2.042,0,1,0-2.81.667A2.042,2.042,0,0,0,148.764,306.054Z" fill="#fff"/>
                </g>
                <g id="Group_26" data-name="Group 26">
                  <path id="Path_57" data-name="Path 57" d="M148.764,320.644a2.042,2.042,0,1,0-2.81.667A2.042,2.042,0,0,0,148.764,320.644Z" fill="#fff"/>
                </g>
              </g>
            </g>
            <g id="Group_38" data-name="Group 38">
              <g id="Group_37" data-name="Group 37">
                <g id="Group_36" data-name="Group 36">
                  <g id="Group_35" data-name="Group 35">
                    <g id="Group_34" data-name="Group 34">
                      <g id="Group_29" data-name="Group 29">
                        <path id="Path_58" data-name="Path 58" d="M154.758,358.389a10.489,10.489,0,0,1-.28,2.39,9.771,9.771,0,0,1-.88,2.39,10.56,10.56,0,0,1-5.06,4.79,10.485,10.485,0,0,1-8.5,0,10.435,10.435,0,0,1-5.06-4.79,10.221,10.221,0,0,1-.89-2.39,10.473,10.473,0,1,1,20.67-2.39Z" fill="#fff"/>
                      </g>
                      <g id="Group_31" data-name="Group 31">
                        <g id="Group_30" data-name="Group 30">
                          <path id="Path_59" data-name="Path 59" d="M151.38,371.34l-.49.24a14.207,14.207,0,0,1-1.94.81l-.52.17v.14h4.31Zm-11.75,1.05a13.347,13.347,0,0,1-1.95-.81l-.49-.24-1.36,1.36-1.62,1.63a.967.967,0,0,1-.7.29h6.64v-2.06Zm11.75-1.05-.49.24a14.207,14.207,0,0,1-1.94.81l-.52.17v.14h4.31Zm-11.75,1.05a13.347,13.347,0,0,1-1.95-.81l-.49-.24-1.36,1.36-1.62,1.63a.967.967,0,0,1-.7.29h6.64v-2.06Zm11.75-1.05-.49.24a14.207,14.207,0,0,1-1.94.81l-.52.17v.14h4.31Zm-13.7.24-.49-.24-1.36,1.36-1.62,1.63a.967.967,0,0,1-.7.29h6.64v-2.06l-.52-.17A13.347,13.347,0,0,1,137.68,371.58Zm36.03-42.84H114.86a6.372,6.372,0,0,0-6.36,6.37v46.56a6.079,6.079,0,0,0,.03.61,6.178,6.178,0,0,0,.49,1.91,6.378,6.378,0,0,0,5.84,3.84h58.85a6.378,6.378,0,0,0,5.83-3.84,6.178,6.178,0,0,0,.49-1.91,6.077,6.077,0,0,0,.03-.61V335.11A6.363,6.363,0,0,0,173.71,328.74ZM157.37,372.7l-1.63,1.63a.928.928,0,0,1-.69.29.955.955,0,0,1-.68-.29l-1.63-1.63-1.36-1.36-.49.24a14.207,14.207,0,0,1-1.94.81l-.52.17v4.22a.99.99,0,0,1-.98.99h-6.33a.982.982,0,0,1-.97-.99v-4.22l-.52-.17a13.347,13.347,0,0,1-1.95-.81l-.49-.24-1.36,1.36-1.62,1.63a.978.978,0,0,1-1.39,0l-.86-.88-.75-.75-1.41-1.4-1.45-1.45a.944.944,0,0,1-.29-.69v-.01a.939.939,0,0,1,.29-.68l2.99-2.99-.26-.49a.843.843,0,0,0-.06-.14,14.8,14.8,0,0,1-.74-1.8l-.11-.36-.06-.16h-4.23a.965.965,0,0,1-.97-.97v-6.34a.965.965,0,0,1,.97-.97h4.23l.17-.52a18.536,18.536,0,0,1,.8-1.95l.26-.48-2.99-2.99a.978.978,0,0,1,0-1.39l4.47-4.47a.978.978,0,0,1,1.39,0l2.98,2.99.49-.25a13.346,13.346,0,0,1,1.95-.81l.52-.17v-4.22a.967.967,0,0,1,.97-.98h6.33a.975.975,0,0,1,.98.98v4.22l.52.17a14.206,14.206,0,0,1,1.94.81l.49.25,2.99-2.99a.955.955,0,0,1,.68-.29.928.928,0,0,1,.69.29l2.71,2.7,1.78,1.77a1,1,0,0,1,0,1.39l-1.81,1.8-1.18,1.19.24.48a13.818,13.818,0,0,1,.81,1.95l.13.39.04.13h4.22a.973.973,0,0,1,.98.97v6.34a.973.973,0,0,1-.98.97h-4.22l-.04.13-.13.39a14.8,14.8,0,0,1-.74,1.8.459.459,0,0,1-.07.14l-.24.49,2.99,2.99a.97.97,0,0,1,.28.68v.01a.976.976,0,0,1-.28.69l-.94.94Zm-17.74-.31a13.347,13.347,0,0,1-1.95-.81l-.49-.24-1.36,1.36-1.62,1.63a.967.967,0,0,1-.7.29h6.64v-2.06Zm11.75-1.05-.49.24a14.207,14.207,0,0,1-1.94.81l-.52.17v.14h4.31Zm-11.75,1.05a13.347,13.347,0,0,1-1.95-.81l-.49-.24-1.36,1.36-1.62,1.63a.967.967,0,0,1-.7.29h6.64v-2.06Zm11.75-1.05-.49.24a14.207,14.207,0,0,1-1.94.81l-.52.17v.14h4.31Z" fill="#fff"/>
                        </g>
                      </g>
                      <g id="Group_33" data-name="Group 33" opacity="0.5">
                        <g id="Group_32" data-name="Group 32">
                          <path id="Path_60" data-name="Path 60" d="M176.7,386.11a5.355,5.355,0,0,1-2.99.92H114.86a5.4,5.4,0,0,1-2.99-.92Z" fill="#008dd2" opacity="0.9"/>
                          <path id="Path_61" data-name="Path 61" d="M178.43,384.19a5.1,5.1,0,0,1-.89,1.22,5.569,5.569,0,0,1-.84.7H111.87a5.57,5.57,0,0,1-.84-.7,5.136,5.136,0,0,1-.9-1.22Z" fill="#008dd2" opacity="0.8"/>
                          <path id="Path_62" data-name="Path 62" d="M179.03,382.28a5.286,5.286,0,0,1-.41,1.51c-.06.14-.12.27-.19.4h-68.3c-.07-.13-.13-.26-.19-.4a4.761,4.761,0,0,1-.4-1.51Z" fill="#008dd2" opacity="0.7"/>
                          <path id="Path_63" data-name="Path 63" d="M179.06,380.36v1.31c0,.18-.01.34-.02.51,0,.03-.01.07-.01.1H109.54a.277.277,0,0,1-.01-.09,4.667,4.667,0,0,1-.03-.52v-1.31Z" fill="#008dd2" opacity="0.6"/>
                          <path id="Path_64" data-name="Path 64" d="M179.06,378.45v1.91H109.5v-1.91h30.55a1.978,1.978,0,0,0,1.07.32h6.33a1.986,1.986,0,0,0,1.08-.32Z" fill="#008dd2" opacity="0.5"/>
                          <path id="Path_65" data-name="Path 65" d="M140.05,378.45H109.5v-1.92h29.65v.25A1.99,1.99,0,0,0,140.05,378.45Z" fill="#008dd2" opacity="0.4"/>
                          <path id="Path_66" data-name="Path 66" d="M179.06,376.53v1.92H148.53a2,2,0,0,0,.9-1.67v-.25Z" fill="#008dd2" opacity="0.4"/>
                          <path id="Path_67" data-name="Path 67" d="M139.15,374.62v1.91H109.5v-1.91h22.2l.4.41a1.992,1.992,0,0,0,2.82.01l.42-.42Z" fill="#008dd2" opacity="0.3"/>
                          <path id="Path_68" data-name="Path 68" d="M179.06,374.62v1.91H149.43v-1.91h3.81l.42.42a1.987,1.987,0,0,0,1.39.58,1.9,1.9,0,0,0,1.41-.6l.4-.4Z" fill="#008dd2" opacity="0.3"/>
                          <path id="Path_69" data-name="Path 69" d="M131.7,374.62H109.5V372.7h20.28l1.47,1.46Z" fill="#008dd2" opacity="0.2"/>
                          <path id="Path_70" data-name="Path 70" d="M139.15,373.28v1.34h-3.81l1.9-1.92h.48A12.2,12.2,0,0,0,139.15,373.28Z" fill="#008dd2" opacity="0.2"/>
                          <path id="Path_71" data-name="Path 71" d="M153.24,374.62h-3.81v-1.34a14.577,14.577,0,0,0,1.42-.58h.48Z" fill="#008dd2" opacity="0.2"/>
                          <path id="Path_72" data-name="Path 72" d="M179.06,372.7v1.92h-22.2l1.93-1.92Z" fill="#008dd2" opacity="0.2"/>
                          <path id="Path_73" data-name="Path 73" d="M129.78,372.7H109.5v-1.91h18.37Z" fill="#008dd2" opacity="0.1"/>
                          <path id="Path_74" data-name="Path 74" d="M137.72,372.7h-.48l.15-.15C137.5,372.6,137.61,372.66,137.72,372.7Z" fill="#008dd2" opacity="0.1"/>
                          <path id="Path_75" data-name="Path 75" d="M151.33,372.7h-.48c.11-.04.22-.1.33-.15Z" fill="#008dd2" opacity="0.1"/>
                          <path id="Path_76" data-name="Path 76" d="M179.06,370.79v1.91H158.79l1.92-1.91Z" fill="#008dd2" opacity="0.1"/>
                        </g>
                      </g>
                    </g>
                  </g>
                </g>
              </g>
            </g>
          </g>
          <g id="Group_57" data-name="Group 57">
            <g id="Group_46" data-name="Group 46">
              <g id="Group_45" data-name="Group 45">
                <g id="Group_44" data-name="Group 44">
                  <g id="Group_43" data-name="Group 43">
                    <g id="Group_42" data-name="Group 42">
                      <g id="Group_41" data-name="Group 41">
                        <g id="Group_40" data-name="Group 40">
                          <path id="Path_77" data-name="Path 77" d="M176.44,112.59H117.6a6.355,6.355,0,0,0-6.35,6.36v46.56c0,.21.01.42.03.62a6.549,6.549,0,0,0,.5,1.92,6.4,6.4,0,0,0,1.28,1.91,6.288,6.288,0,0,0,4.54,1.92h58.84a6.328,6.328,0,0,0,4.55-1.92,6.4,6.4,0,0,0,1.28-1.91,6.549,6.549,0,0,0,.5-1.92c.02-.2.03-.41.03-.62V118.95A6.363,6.363,0,0,0,176.44,112.59Zm-25.6,45.66a.41.41,0,0,1-.07.22.4.4,0,0,1-.34.18h-6.82a.358.358,0,0,1-.32-.18.35.35,0,0,1-.08-.22V145.62a1.035,1.035,0,0,0-1.03-1.03h-1.4a.4.4,0,0,1-.28-.68l6.24-6.23a.387.387,0,0,1,.56,0l6.24,6.23a.4.4,0,0,1,.09.43.394.394,0,0,1-.37.25h-1.4a1.033,1.033,0,0,0-1.02,1.03Zm16.33-3.11H152.41v-8.98h.85a1.977,1.977,0,0,0,1.4-3.37l-6.24-6.23a1.956,1.956,0,0,0-2.8,0l-6.23,6.23a1.971,1.971,0,0,0,1.39,3.37h.85v8.98H126.87a8.18,8.18,0,1,1,0-16.36h.1a14.659,14.659,0,0,1,27.62-4.97,11.3,11.3,0,0,1,2.28-.23,11.628,11.628,0,0,1,1.67.13,10.771,10.771,0,0,1,7.59,5.14,7.172,7.172,0,0,1,1.04-.07,8.18,8.18,0,1,1,0,16.36Z" fill="#fff"/>
                        </g>
                      </g>
                    </g>
                  </g>
                </g>
              </g>
            </g>
            <g id="Group_48" data-name="Group 48" opacity="0.5">
              <g id="Group_47" data-name="Group 47">
                <path id="Path_78" data-name="Path 78" d="M179.45,169.96a5.294,5.294,0,0,1-3.01.92H117.6a5.24,5.24,0,0,1-3-.92Z" fill="#008dd2" opacity="0.9"/>
                <path id="Path_79" data-name="Path 79" d="M181.15,168.05a5.72,5.72,0,0,1-.88,1.22,5.356,5.356,0,0,1-.82.69H114.6a5.356,5.356,0,0,1-.82-.69,5.1,5.1,0,0,1-.88-1.22Z" fill="#008dd2" opacity="0.8"/>
                <path id="Path_80" data-name="Path 80" d="M181.76,166.13a5.264,5.264,0,0,1-.41,1.52,2.987,2.987,0,0,1-.2.4H112.9a2.986,2.986,0,0,1-.2-.4,5.619,5.619,0,0,1-.42-1.52Z" fill="#008dd2" opacity="0.7"/>
                <path id="Path_81" data-name="Path 81" d="M181.8,164.21v1.3a4.408,4.408,0,0,1-.03.52c0,.03-.01.07-.01.1H112.28c0-.03-.01-.07-.01-.1-.01-.17-.02-.34-.02-.52v-1.3Z" fill="#008dd2" opacity="0.6"/>
                <rect id="Rectangle_22" data-name="Rectangle 22" width="69.55" height="1.91" transform="translate(112.25 162.3)" fill="#008dd2" opacity="0.5"/>
                <rect id="Rectangle_23" data-name="Rectangle 23" width="69.55" height="1.92" transform="translate(112.25 160.38)" fill="#008dd2" opacity="0.4"/>
                <path id="Path_82" data-name="Path 82" d="M181.8,158.47v1.91H112.25v-1.91h29.98a1.259,1.259,0,0,0,.23.56,1.355,1.355,0,0,0,1.15.62h6.82a1.428,1.428,0,0,0,1.19-.65,1.4,1.4,0,0,0,.2-.53Z" fill="#008dd2" opacity="0.3"/>
                <path id="Path_83" data-name="Path 83" d="M142.23,158.47H112.25v-1.92h29.96v1.7A1.636,1.636,0,0,0,142.23,158.47Z" fill="#008dd2" opacity="0.2"/>
                <path id="Path_84" data-name="Path 84" d="M181.8,156.55v1.92H151.82a1.636,1.636,0,0,0,.02-.22v-1.7Z" fill="#008dd2" opacity="0.2"/>
                <path id="Path_85" data-name="Path 85" d="M142.21,156.14v.41H112.25v-1.91h9.6a8.776,8.776,0,0,0,1.86.94,9.23,9.23,0,0,0,3.16.56Z" fill="#008dd2" opacity="0.1"/>
                <path id="Path_86" data-name="Path 86" d="M181.8,154.64v1.91H151.84v-.41h15.33a9.23,9.23,0,0,0,3.16-.56,8.776,8.776,0,0,0,1.86-.94Z" fill="#008dd2" opacity="0.1"/>
              </g>
            </g>
            <g id="Group_56" data-name="Group 56">
              <g id="Group_55" data-name="Group 55">
                <g id="Group_54" data-name="Group 54">
                  <g id="Group_49" data-name="Group 49">
                    <path id="Path_87" data-name="Path 87" d="M195.7,212.059a2.042,2.042,0,1,1-2.809-.667A2.043,2.043,0,0,1,195.7,212.059Z" fill="#fff"/>
                    <path id="Path_88" data-name="Path 88" d="M211.341,212.059a2.041,2.041,0,1,1-2.809-.667A2.042,2.042,0,0,1,211.341,212.059Z" fill="#fff"/>
                    <path id="Path_89" data-name="Path 89" d="M226.985,212.059a2.041,2.041,0,1,1-2.809-.667A2.042,2.042,0,0,1,226.985,212.059Z" fill="#fff"/>
                  </g>
                  <g id="Group_50" data-name="Group 50">
                    <path id="Path_90" data-name="Path 90" d="M164.408,212.059a2.042,2.042,0,1,1-2.809-.667A2.043,2.043,0,0,1,164.408,212.059Z" fill="#fff"/>
                    <path id="Path_91" data-name="Path 91" d="M180.052,212.059a2.041,2.041,0,1,1-2.809-.667A2.042,2.042,0,0,1,180.052,212.059Z" fill="#fff"/>
                  </g>
                  <g id="Group_51" data-name="Group 51">
                    <path id="Path_92" data-name="Path 92" d="M148.764,212.059a2.042,2.042,0,1,1-2.81-.667A2.043,2.043,0,0,1,148.764,212.059Z" fill="#fff"/>
                  </g>
                  <g id="Group_52" data-name="Group 52">
                    <path id="Path_93" data-name="Path 93" d="M148.764,197.469a2.042,2.042,0,1,1-2.81-.667A2.043,2.043,0,0,1,148.764,197.469Z" fill="#fff"/>
                  </g>
                  <g id="Group_53" data-name="Group 53">
                    <path id="Path_94" data-name="Path 94" d="M148.764,182.879a2.042,2.042,0,1,1-2.81-.667A2.043,2.043,0,0,1,148.764,182.879Z" fill="#fff"/>
                  </g>
                </g>
              </g>
            </g>
          </g>
          <g id="Group_68" data-name="Group 68">
            <g id="Group_64" data-name="Group 64">
              <g id="Group_63" data-name="Group 63">
                <g id="Group_62" data-name="Group 62">
                  <g id="Group_61" data-name="Group 61">
                    <g id="Group_60" data-name="Group 60">
                      <g id="Group_59" data-name="Group 59">
                        <g id="Group_58" data-name="Group 58">
                          <path id="Path_95" data-name="Path 95" d="M94.19,217.88H35.35a6.363,6.363,0,0,0-6.36,6.36V270.8c0,.21.01.42.03.62a6.178,6.178,0,0,0,.49,1.91,6.3,6.3,0,0,0,1.29,1.92,6.359,6.359,0,0,0,4.55,1.91H94.19a6.359,6.359,0,0,0,4.55-1.91,6.3,6.3,0,0,0,1.29-1.92,6.178,6.178,0,0,0,.49-1.91c.02-.2.03-.41.03-.62V224.24A6.363,6.363,0,0,0,94.19,217.88ZM56.67,261.07a1.978,1.978,0,0,1-2.78-1.14,2.185,2.185,0,0,1-.1-.63V235.73a1.986,1.986,0,0,1,2.88-1.77l23.09,11.79a1.984,1.984,0,0,1,0,3.54L58.9,259.93Z" fill="#fff"/>
                        </g>
                      </g>
                    </g>
                  </g>
                </g>
              </g>
            </g>
            <g id="Group_66" data-name="Group 66" opacity="0.5">
              <g id="Group_65" data-name="Group 65">
                <path id="Path_96" data-name="Path 96" d="M97.18,275.25a5.346,5.346,0,0,1-2.99.91H35.35a5.346,5.346,0,0,1-2.99-.91Z" fill="#008dd2" opacity="0.9"/>
                <path id="Path_97" data-name="Path 97" d="M98.92,273.33a5.1,5.1,0,0,1-.89,1.22,4.725,4.725,0,0,1-.85.7H32.36a4.725,4.725,0,0,1-.85-.7,5.1,5.1,0,0,1-.89-1.22Z" fill="#008dd2" opacity="0.8"/>
                <path id="Path_98" data-name="Path 98" d="M99.51,271.42a4.692,4.692,0,0,1-.4,1.51c-.06.14-.12.27-.19.4H30.62c-.07-.13-.13-.26-.19-.4a4.692,4.692,0,0,1-.4-1.51Z" fill="#008dd2" opacity="0.7"/>
                <path id="Path_99" data-name="Path 99" d="M99.55,269.5v1.3a4.4,4.4,0,0,1-.03.52c0,.03-.01.07-.01.1H30.03a.277.277,0,0,1-.01-.09,4.707,4.707,0,0,1-.03-.53v-1.3Z" fill="#008dd2" opacity="0.6"/>
                <rect id="Rectangle_24" data-name="Rectangle 24" width="69.56" height="1.91" transform="translate(29.99 267.59)" fill="#008dd2" opacity="0.5"/>
                <rect id="Rectangle_25" data-name="Rectangle 25" width="69.56" height="1.92" transform="translate(29.99 265.67)" fill="#008dd2" opacity="0.4"/>
                <rect id="Rectangle_26" data-name="Rectangle 26" width="69.56" height="1.91" transform="translate(29.99 263.76)" fill="#008dd2" opacity="0.3"/>
                <path id="Path_100" data-name="Path 100" d="M99.55,261.84v1.92H29.99v-1.92H54.22a2.891,2.891,0,0,0,1.55.45,2.936,2.936,0,0,0,1.36-.33l.24-.12Z" fill="#008dd2" opacity="0.2"/>
                <path id="Path_101" data-name="Path 101" d="M54.22,261.84H29.99v-1.91H52.87a1.667,1.667,0,0,0,.06.29A2.98,2.98,0,0,0,54.22,261.84Z" fill="#008dd2" opacity="0.1"/>
                <path id="Path_102" data-name="Path 102" d="M99.55,259.93v1.91H57.37l3.74-1.91Z" fill="#008dd2" opacity="0.1"/>
              </g>
            </g>
            <g id="Group_67" data-name="Group 67">
              <path id="Path_103" data-name="Path 103" d="M195.7,248.593a2.042,2.042,0,1,0-2.809.668A2.042,2.042,0,0,0,195.7,248.593Z" fill="#fff"/>
              <path id="Path_104" data-name="Path 104" d="M211.341,248.593a2.041,2.041,0,1,0-2.809.668A2.041,2.041,0,0,0,211.341,248.593Z" fill="#fff"/>
              <path id="Path_105" data-name="Path 105" d="M226.985,248.593a2.041,2.041,0,1,0-2.809.668A2.041,2.041,0,0,0,226.985,248.593Z" fill="#fff"/>
              <path id="Path_106" data-name="Path 106" d="M164.408,248.593a2.042,2.042,0,1,0-2.809.668A2.042,2.042,0,0,0,164.408,248.593Z" fill="#fff"/>
              <path id="Path_107" data-name="Path 107" d="M180.052,248.593a2.041,2.041,0,1,0-2.809.668A2.041,2.041,0,0,0,180.052,248.593Z" fill="#fff"/>
              <path id="Path_108" data-name="Path 108" d="M148.764,248.593a2.042,2.042,0,1,0-2.81.668A2.042,2.042,0,0,0,148.764,248.593Z" fill="#fff"/>
              <path id="Path_109" data-name="Path 109" d="M133.119,248.593a2.041,2.041,0,1,0-2.809.668A2.041,2.041,0,0,0,133.119,248.593Z" fill="#fff"/>
              <path id="Path_110" data-name="Path 110" d="M117.475,248.593a2.042,2.042,0,1,0-2.809.668A2.042,2.042,0,0,0,117.475,248.593Z" fill="#fff"/>
            </g>
          </g>
          <g id="Group_86" data-name="Group 86">
            <g id="Group_75" data-name="Group 75">
              <g id="Group_74" data-name="Group 74">
                <g id="Group_73" data-name="Group 73">
                  <g id="Group_72" data-name="Group 72">
                    <g id="Group_71" data-name="Group 71">
                      <g id="Group_70" data-name="Group 70">
                        <g id="Group_69" data-name="Group 69">
                          <path id="Path_111" data-name="Path 111" d="M635.14,328.75H576.29a6.355,6.355,0,0,0-6.35,6.36v46.57q0,.3.03.6a6.1,6.1,0,0,0,.49,1.92,6.4,6.4,0,0,0,5.83,3.83h58.85a6.4,6.4,0,0,0,5.83-3.83,6.1,6.1,0,0,0,.49-1.92q.03-.3.03-.6V335.11A6.355,6.355,0,0,0,635.14,328.75ZM595.88,339.4a4.61,4.61,0,1,1-4.61,4.61A4.6,4.6,0,0,1,595.88,339.4Zm37.3,36.42a1.567,1.567,0,0,1-.18.72,1.539,1.539,0,0,1-1.37.82H579.81a1.539,1.539,0,0,1-1.37-.82,1.567,1.567,0,0,1-.18-.72v-9.18a1.505,1.505,0,0,1,.64-1.26l12.44-8.95a1.537,1.537,0,0,1,1.66-.09l13.75,7.81a1.536,1.536,0,0,0,1.9-.29l15.14-16.38a1.535,1.535,0,0,1,2.04-.19l6.71,4.87a1.545,1.545,0,0,1,.64,1.26Z" fill="#fff"/>
                        </g>
                      </g>
                    </g>
                  </g>
                </g>
              </g>
            </g>
            <g id="Group_77" data-name="Group 77" opacity="0.3">
              <g id="Group_76" data-name="Group 76">
                <path id="Path_112" data-name="Path 112" d="M638.14,386.11a5.412,5.412,0,0,1-3,.92H576.29a5.307,5.307,0,0,1-2.99-.92Z" fill="#008dd2" opacity="0.9"/>
                <path id="Path_113" data-name="Path 113" d="M639.85,384.2a5.422,5.422,0,0,1-.88,1.21,5.045,5.045,0,0,1-.83.7H573.3a4.987,4.987,0,0,1-.83-.69,5.44,5.44,0,0,1-.89-1.22Z" fill="#008dd2" opacity="0.8"/>
                <path id="Path_114" data-name="Path 114" d="M640.45,382.28a4.681,4.681,0,0,1-.4,1.52,2.983,2.983,0,0,1-.2.4H571.58a2.983,2.983,0,0,1-.2-.4,4.682,4.682,0,0,1-.4-1.52Z" fill="#008dd2" opacity="0.7"/>
                <path id="Path_115" data-name="Path 115" d="M640.49,380.37v1.31a4.2,4.2,0,0,1-.03.5c0,.03-.01.07-.01.1H570.98c0-.03-.01-.06-.01-.09a4.37,4.37,0,0,1-.03-.51v-1.31Z" fill="#008dd2" opacity="0.6"/>
                <rect id="Rectangle_27" data-name="Rectangle 27" width="69.55" height="1.92" transform="translate(570.94 378.45)" fill="#008dd2" opacity="0.5"/>
                <path id="Path_116" data-name="Path 116" d="M640.49,376.54v1.91H570.94v-1.91h6.43a2.03,2.03,0,0,0,.19.46,2.529,2.529,0,0,0,2.25,1.36h51.82a2.539,2.539,0,0,0,2.25-1.35,2.1,2.1,0,0,0,.19-.47Z" fill="#008dd2" opacity="0.4"/>
                <path id="Path_117" data-name="Path 117" d="M577.37,376.54h-6.43v-1.92h6.32v1.2A2.514,2.514,0,0,0,577.37,376.54Z" fill="#008dd2" opacity="0.3"/>
                <path id="Path_118" data-name="Path 118" d="M640.49,374.62v1.92h-6.42a2.514,2.514,0,0,0,.11-.72v-1.2Z" fill="#008dd2" opacity="0.3"/>
                <rect id="Rectangle_28" data-name="Rectangle 28" width="6.32" height="1.91" transform="translate(570.94 372.71)" fill="#008dd2" opacity="0.2"/>
                <rect id="Rectangle_29" data-name="Rectangle 29" width="6.31" height="1.91" transform="translate(634.18 372.71)" fill="#008dd2" opacity="0.2"/>
                <rect id="Rectangle_30" data-name="Rectangle 30" width="6.32" height="1.92" transform="translate(570.94 370.79)" fill="#008dd2" opacity="0.1"/>
                <rect id="Rectangle_31" data-name="Rectangle 31" width="6.31" height="1.92" transform="translate(634.18 370.79)" fill="#008dd2" opacity="0.1"/>
              </g>
            </g>
            <g id="Group_85" data-name="Group 85">
              <g id="Group_84" data-name="Group 84">
                <g id="Group_83" data-name="Group 83">
                  <g id="Group_78" data-name="Group 78">
                    <path id="Path_119" data-name="Path 119" d="M554.3,291.464a2.042,2.042,0,1,1,2.809.667A2.042,2.042,0,0,1,554.3,291.464Z" fill="#fff"/>
                    <path id="Path_120" data-name="Path 120" d="M538.659,291.464a2.041,2.041,0,1,1,2.809.667A2.041,2.041,0,0,1,538.659,291.464Z" fill="#fff"/>
                    <path id="Path_121" data-name="Path 121" d="M523.014,291.464a2.042,2.042,0,1,1,2.81.667A2.042,2.042,0,0,1,523.014,291.464Z" fill="#fff"/>
                  </g>
                  <g id="Group_79" data-name="Group 79">
                    <path id="Path_122" data-name="Path 122" d="M585.592,291.464a2.041,2.041,0,1,1,2.809.667A2.041,2.041,0,0,1,585.592,291.464Z" fill="#fff"/>
                    <path id="Path_123" data-name="Path 123" d="M569.948,291.464a2.041,2.041,0,1,1,2.809.667A2.041,2.041,0,0,1,569.948,291.464Z" fill="#fff"/>
                  </g>
                  <g id="Group_80" data-name="Group 80">
                    <path id="Path_124" data-name="Path 124" d="M601.236,291.464a2.042,2.042,0,1,1,2.809.667A2.042,2.042,0,0,1,601.236,291.464Z" fill="#fff"/>
                  </g>
                  <g id="Group_81" data-name="Group 81">
                    <path id="Path_125" data-name="Path 125" d="M601.236,306.054a2.042,2.042,0,1,1,2.809.667A2.042,2.042,0,0,1,601.236,306.054Z" fill="#fff"/>
                  </g>
                  <g id="Group_82" data-name="Group 82">
                    <path id="Path_126" data-name="Path 126" d="M601.236,320.644a2.042,2.042,0,1,1,2.809.667A2.042,2.042,0,0,1,601.236,320.644Z" fill="#fff"/>
                  </g>
                </g>
              </g>
            </g>
          </g>
          <g id="Group_104" data-name="Group 104">
            <g id="Group_93" data-name="Group 93">
              <g id="Group_92" data-name="Group 92">
                <g id="Group_91" data-name="Group 91">
                  <g id="Group_90" data-name="Group 90">
                    <g id="Group_89" data-name="Group 89">
                      <g id="Group_88" data-name="Group 88">
                        <g id="Group_87" data-name="Group 87">
                          <path id="Path_127" data-name="Path 127" d="M632.4,112.6H573.56a6.355,6.355,0,0,0-6.36,6.35v46.57a6.091,6.091,0,0,0,.03.61,6.169,6.169,0,0,0,.49,1.92,6.4,6.4,0,0,0,5.84,3.83H632.4a6.4,6.4,0,0,0,5.83-3.83,6.167,6.167,0,0,0,.49-1.92,6.072,6.072,0,0,0,.03-.61V118.95A6.346,6.346,0,0,0,632.4,112.6ZM602,124.12h.25V141.6H584.86c-.01-.1-.01-.23-.01-.34A17.144,17.144,0,0,1,602,124.12Zm12.73,32.43a16.142,16.142,0,0,1-2.96,1.92,17.09,17.09,0,0,1-18.59-1.92,16.514,16.514,0,0,1-2.01-1.91,17.035,17.035,0,0,1-4.36-11.08h17.38V126.07a17.141,17.141,0,0,1,10.54,30.48Z" fill="#fff"/>
                        </g>
                      </g>
                    </g>
                  </g>
                </g>
              </g>
            </g>
            <g id="Group_95" data-name="Group 95" opacity="0.3">
              <g id="Group_94" data-name="Group 94">
                <path id="Path_128" data-name="Path 128" d="M635.39,169.96a5.355,5.355,0,0,1-2.99.92H573.56a5.355,5.355,0,0,1-2.99-.92Z" fill="#008dd2" opacity="0.9"/>
                <path id="Path_129" data-name="Path 129" d="M637.12,168.05a5.246,5.246,0,0,1-.89,1.21,5.573,5.573,0,0,1-.84.7H570.57a5.573,5.573,0,0,1-.84-.7,5.29,5.29,0,0,1-.9-1.21Z" fill="#008dd2" opacity="0.8"/>
                <path id="Path_130" data-name="Path 130" d="M637.71,166.13a4.819,4.819,0,0,1-.4,1.52c-.06.14-.12.27-.19.4H568.83c-.07-.13-.13-.26-.19-.4a4.817,4.817,0,0,1-.4-1.52Z" fill="#008dd2" opacity="0.7"/>
                <path id="Path_131" data-name="Path 131" d="M637.75,164.21v1.31a4.357,4.357,0,0,1-.03.51c0,.03-.01.07-.01.1H568.24a.277.277,0,0,1-.01-.09,4.676,4.676,0,0,1-.03-.52v-1.31Z" fill="#008dd2" opacity="0.6"/>
                <rect id="Rectangle_32" data-name="Rectangle 32" width="69.55" height="1.91" transform="translate(568.2 162.3)" fill="#008dd2" opacity="0.5"/>
                <path id="Path_132" data-name="Path 132" d="M637.75,160.38v1.92H568.2v-1.92h29.87a17.657,17.657,0,0,0,5.88.98,18.032,18.032,0,0,0,5.87-.98Z" fill="#008dd2" opacity="0.4"/>
                <path id="Path_133" data-name="Path 133" d="M598.07,160.38H568.2v-1.91h25.93c.5.32,1.01.62,1.53.89A16.9,16.9,0,0,0,598.07,160.38Z" fill="#008dd2" opacity="0.3"/>
                <path id="Path_134" data-name="Path 134" d="M637.75,158.47v1.91H609.82a17.583,17.583,0,0,0,2.41-1.02,16.22,16.22,0,0,0,1.55-.89Z" fill="#008dd2" opacity="0.3"/>
                <path id="Path_135" data-name="Path 135" d="M594.13,158.47H568.2v-1.92h23.45q.435.405.9.78A16.257,16.257,0,0,0,594.13,158.47Z" fill="#008dd2" opacity="0.2"/>
                <path id="Path_136" data-name="Path 136" d="M637.75,156.55v1.92H613.78a17.041,17.041,0,0,0,1.58-1.14c.31-.25.61-.5.9-.78Z" fill="#008dd2" opacity="0.2"/>
                <path id="Path_137" data-name="Path 137" d="M591.65,156.55H568.2v-1.91h21.65c.19.23.38.45.57.67C590.8,155.73,591.21,156.15,591.65,156.55Z" fill="#008dd2" opacity="0.1"/>
                <path id="Path_138" data-name="Path 138" d="M637.75,154.64v1.91H616.26c.42-.39.83-.8,1.22-1.24.19-.22.38-.44.56-.67Z" fill="#008dd2" opacity="0.1"/>
              </g>
            </g>
            <g id="Group_103" data-name="Group 103">
              <g id="Group_102" data-name="Group 102">
                <g id="Group_101" data-name="Group 101">
                  <g id="Group_96" data-name="Group 96">
                    <path id="Path_139" data-name="Path 139" d="M554.3,212.059a2.042,2.042,0,1,0,2.809-.667A2.043,2.043,0,0,0,554.3,212.059Z" fill="#fff"/>
                    <path id="Path_140" data-name="Path 140" d="M538.659,212.059a2.041,2.041,0,1,0,2.809-.667A2.042,2.042,0,0,0,538.659,212.059Z" fill="#fff"/>
                    <path id="Path_141" data-name="Path 141" d="M523.014,212.059a2.042,2.042,0,1,0,2.81-.667A2.043,2.043,0,0,0,523.014,212.059Z" fill="#fff"/>
                  </g>
                  <g id="Group_97" data-name="Group 97">
                    <path id="Path_142" data-name="Path 142" d="M585.592,212.059a2.041,2.041,0,1,0,2.809-.667A2.042,2.042,0,0,0,585.592,212.059Z" fill="#fff"/>
                    <path id="Path_143" data-name="Path 143" d="M569.948,212.059a2.041,2.041,0,1,0,2.809-.667A2.042,2.042,0,0,0,569.948,212.059Z" fill="#fff"/>
                  </g>
                  <g id="Group_98" data-name="Group 98">
                    <path id="Path_144" data-name="Path 144" d="M601.236,212.059a2.042,2.042,0,1,0,2.809-.667A2.043,2.043,0,0,0,601.236,212.059Z" fill="#fff"/>
                  </g>
                  <g id="Group_99" data-name="Group 99">
                    <path id="Path_145" data-name="Path 145" d="M601.236,197.469a2.042,2.042,0,1,0,2.809-.667A2.043,2.043,0,0,0,601.236,197.469Z" fill="#fff"/>
                  </g>
                  <g id="Group_100" data-name="Group 100">
                    <path id="Path_146" data-name="Path 146" d="M601.236,182.879a2.042,2.042,0,1,0,2.809-.667A2.043,2.043,0,0,0,601.236,182.879Z" fill="#fff"/>
                  </g>
                </g>
              </g>
            </g>
          </g>
          <g id="Group_122" data-name="Group 122">
            <g id="Group_111" data-name="Group 111">
              <g id="Group_110" data-name="Group 110">
                <g id="Group_109" data-name="Group 109">
                  <g id="Group_108" data-name="Group 108">
                    <g id="Group_107" data-name="Group 107">
                      <g id="Group_106" data-name="Group 106">
                        <g id="Group_105" data-name="Group 105">
                          <path id="Path_147" data-name="Path 147" d="M502.13,56.11H443.29a6.346,6.346,0,0,0-6.35,6.35v46.57c0,.23.01.46.03.68a6.506,6.506,0,0,0,.53,1.92,6.208,6.208,0,0,0,1.32,1.92,6.329,6.329,0,0,0,4.47,1.84h58.84a6.318,6.318,0,0,0,5.8-3.76,6.505,6.505,0,0,0,.53-1.92c.02-.22.03-.45.03-.68V62.46A6.355,6.355,0,0,0,502.13,56.11ZM453.88,87.26a1.3,1.3,0,0,1,.1-.49l7.12-16.46a1.219,1.219,0,0,1,1.12-.73h4.64a1.211,1.211,0,0,1,1.17,1.55l-3.65,12.59a1.219,1.219,0,0,0,1.17,1.56h3.76a1.214,1.214,0,0,1,1.21,1.21V100.7a1.223,1.223,0,0,1-1.21,1.22H455.1a1.218,1.218,0,0,1-1.22-1.22Zm30.89,12.88-.45,1.04a1.212,1.212,0,0,1-1.12.74h-4.64a1.223,1.223,0,0,1-1.17-1.56l.06-.22.56-1.92,3.03-10.45a1.211,1.211,0,0,0-1.17-1.55h-3.75a1.214,1.214,0,0,1-1.21-1.21V70.79a1.208,1.208,0,0,1,1.21-1.21h14.2a1.21,1.21,0,0,1,1.22,1.21V84.24a1.149,1.149,0,0,1-.1.48l-5.84,13.5Z" fill="#fff"/>
                        </g>
                      </g>
                    </g>
                  </g>
                </g>
              </g>
            </g>
            <g id="Group_113" data-name="Group 113" opacity="0.5">
              <g id="Group_112" data-name="Group 112">
                <path id="Path_148" data-name="Path 148" d="M505.01,113.55a5.271,5.271,0,0,1-2.88.84H443.29a5.262,5.262,0,0,1-2.87-.84Z" fill="#008dd2" opacity="0.9"/>
                <path id="Path_149" data-name="Path 149" d="M506.82,111.63a5.448,5.448,0,0,1-.92,1.21,5.046,5.046,0,0,1-.89.71H440.42a5.508,5.508,0,0,1-.9-.71,4.947,4.947,0,0,1-.9-1.21Z" fill="#008dd2" opacity="0.8"/>
                <path id="Path_150" data-name="Path 150" d="M507.45,109.71a5.417,5.417,0,0,1-.43,1.51c-.06.14-.13.28-.2.41h-68.2a2.987,2.987,0,0,1-.2-.4,5.406,5.406,0,0,1-.44-1.52Z" fill="#008dd2" opacity="0.7"/>
                <path id="Path_151" data-name="Path 151" d="M507.49,107.8v1.23a5.678,5.678,0,0,1-.03.59c0,.03-.01.06-.01.09H437.98a.5.5,0,0,1-.02-.12c-.01-.16-.02-.36-.02-.56V107.8Z" fill="#008dd2" opacity="0.6"/>
                <rect id="Rectangle_33" data-name="Rectangle 33" width="69.55" height="1.92" transform="translate(437.94 105.88)" fill="#008dd2" opacity="0.5"/>
                <rect id="Rectangle_34" data-name="Rectangle 34" width="69.55" height="1.91" transform="translate(437.94 103.97)" fill="#008dd2" opacity="0.4"/>
                <path id="Path_152" data-name="Path 152" d="M507.49,102.05v1.92H437.94v-1.92h15.4a2.227,2.227,0,0,0,1.76.87h14.21a2.193,2.193,0,0,0,1.75-.87h5.75a2.179,2.179,0,0,0,1.75.87h4.64a2.212,2.212,0,0,0,1.76-.87Z" fill="#008dd2" opacity="0.3"/>
                <path id="Path_153" data-name="Path 153" d="M453.34,102.05h-15.4v-1.91h14.94v.56A2.2,2.2,0,0,0,453.34,102.05Z" fill="#008dd2" opacity="0.2"/>
                <path id="Path_154" data-name="Path 154" d="M476.81,102.05h-5.75a2.2,2.2,0,0,0,.46-1.35v-.56h4.9a2.2,2.2,0,0,0,.38,1.9Z" fill="#008dd2" opacity="0.2"/>
                <path id="Path_155" data-name="Path 155" d="M507.49,100.14v1.91H484.96a2.08,2.08,0,0,0,.28-.48l.62-1.43Z" fill="#008dd2" opacity="0.2"/>
                <rect id="Rectangle_35" data-name="Rectangle 35" width="14.94" height="1.92" transform="translate(437.94 98.22)" fill="#008dd2" opacity="0.1"/>
                <path id="Path_156" data-name="Path 156" d="M476.97,98.22l-.48,1.64-.06.23c0,.02-.01.03-.01.05h-4.9V98.22Z" fill="#008dd2" opacity="0.1"/>
                <path id="Path_157" data-name="Path 157" d="M507.49,98.22v1.92H485.86l.83-1.92Z" fill="#008dd2" opacity="0.1"/>
              </g>
            </g>
            <g id="Group_121" data-name="Group 121">
              <g id="Group_120" data-name="Group 120">
                <g id="Group_119" data-name="Group 119">
                  <g id="Group_114" data-name="Group 114">
                    <path id="Path_158" data-name="Path 158" d="M423.4,136.059a2.041,2.041,0,1,0,2.809-.667A2.042,2.042,0,0,0,423.4,136.059Z" fill="#fff"/>
                    <path id="Path_159" data-name="Path 159" d="M407.751,136.059a2.042,2.042,0,1,0,2.81-.667A2.043,2.043,0,0,0,407.751,136.059Z" fill="#fff"/>
                    <path id="Path_160" data-name="Path 160" d="M392.107,136.059a2.042,2.042,0,1,0,2.809-.667A2.043,2.043,0,0,0,392.107,136.059Z" fill="#fff"/>
                  </g>
                  <g id="Group_115" data-name="Group 115">
                    <path id="Path_161" data-name="Path 161" d="M454.685,136.059a2.041,2.041,0,1,0,2.809-.667A2.042,2.042,0,0,0,454.685,136.059Z" fill="#fff"/>
                    <path id="Path_162" data-name="Path 162" d="M439.04,136.059a2.042,2.042,0,1,0,2.809-.667A2.042,2.042,0,0,0,439.04,136.059Z" fill="#fff"/>
                  </g>
                  <g id="Group_116" data-name="Group 116">
                    <path id="Path_163" data-name="Path 163" d="M470.329,136.059a2.041,2.041,0,1,0,2.809-.667A2.042,2.042,0,0,0,470.329,136.059Z" fill="#fff"/>
                  </g>
                  <g id="Group_117" data-name="Group 117">
                    <path id="Path_164" data-name="Path 164" d="M470.329,121.469a2.041,2.041,0,1,0,2.809-.667A2.042,2.042,0,0,0,470.329,121.469Z" fill="#fff"/>
                  </g>
                  <g id="Group_118" data-name="Group 118">
                    <path id="Path_165" data-name="Path 165" d="M392.107,149.713a2.042,2.042,0,1,0,2.809-.668A2.042,2.042,0,0,0,392.107,149.713Z" fill="#fff"/>
                  </g>
                </g>
              </g>
            </g>
          </g>
          <g id="Group_146" data-name="Group 146">
            <g id="Group_130" data-name="Group 130">
              <g id="Group_129" data-name="Group 129">
                <g id="Group_128" data-name="Group 128">
                  <g id="Group_123" data-name="Group 123">
                    <path id="Path_166" data-name="Path 166" d="M330.361,136.059a2.041,2.041,0,1,1-2.809-.667A2.042,2.042,0,0,1,330.361,136.059Z" fill="#fff"/>
                    <path id="Path_167" data-name="Path 167" d="M346.006,136.059a2.042,2.042,0,1,1-2.81-.667A2.043,2.043,0,0,1,346.006,136.059Z" fill="#fff"/>
                    <path id="Path_168" data-name="Path 168" d="M361.65,136.059a2.042,2.042,0,1,1-2.809-.667A2.043,2.043,0,0,1,361.65,136.059Z" fill="#fff"/>
                  </g>
                  <g id="Group_124" data-name="Group 124">
                    <path id="Path_169" data-name="Path 169" d="M299.072,136.059a2.041,2.041,0,1,1-2.809-.667A2.042,2.042,0,0,1,299.072,136.059Z" fill="#fff"/>
                    <path id="Path_170" data-name="Path 170" d="M314.717,136.059a2.042,2.042,0,1,1-2.809-.667A2.043,2.043,0,0,1,314.717,136.059Z" fill="#fff"/>
                  </g>
                  <g id="Group_125" data-name="Group 125">
                    <path id="Path_171" data-name="Path 171" d="M283.428,136.059a2.041,2.041,0,1,1-2.809-.667A2.042,2.042,0,0,1,283.428,136.059Z" fill="#fff"/>
                  </g>
                  <g id="Group_126" data-name="Group 126">
                    <path id="Path_172" data-name="Path 172" d="M283.428,121.469a2.041,2.041,0,1,1-2.809-.667A2.042,2.042,0,0,1,283.428,121.469Z" fill="#fff"/>
                  </g>
                  <g id="Group_127" data-name="Group 127">
                    <path id="Path_173" data-name="Path 173" d="M361.65,149.713a2.042,2.042,0,1,1-2.809-.668A2.042,2.042,0,0,1,361.65,149.713Z" fill="#fff"/>
                  </g>
                </g>
              </g>
            </g>
            <g id="Group_145" data-name="Group 145">
              <g id="Group_137" data-name="Group 137">
                <g id="Group_136" data-name="Group 136">
                  <g id="Group_135" data-name="Group 135">
                    <g id="Group_134" data-name="Group 134">
                      <g id="Group_133" data-name="Group 133">
                        <g id="Group_132" data-name="Group 132">
                          <g id="Group_131" data-name="Group 131">
                            <path id="Path_174" data-name="Path 174" d="M292.21,84.2c-5.82,3.36-15.26,3.36-21.1,0a9.291,9.291,0,0,1-3.77-3.69c.05,2.09,1.44,4.16,4.19,5.75,5.6,3.23,14.68,3.23,20.28,0,2.75-1.59,4.14-3.67,4.18-5.75A9.2,9.2,0,0,1,292.21,84.2Zm0,0c-5.82,3.36-15.26,3.36-21.1,0a9.291,9.291,0,0,1-3.77-3.69c.05,2.09,1.44,4.16,4.19,5.75,5.6,3.23,14.68,3.23,20.28,0,2.75-1.59,4.14-3.67,4.18-5.75A9.2,9.2,0,0,1,292.21,84.2Zm0,10.57c-5.82,3.37-15.26,3.37-21.1,0a9.274,9.274,0,0,1-3.77-3.68c.05,2.08,1.44,4.15,4.19,5.74a16.083,16.083,0,0,0,3.13,1.36,23.763,23.763,0,0,0,14.02,0,16.083,16.083,0,0,0,3.13-1.36c2.75-1.59,4.14-3.66,4.18-5.75A9.137,9.137,0,0,1,292.21,94.77Zm0-10.57c-5.82,3.36-15.26,3.36-21.1,0a9.291,9.291,0,0,1-3.77-3.69c.05,2.09,1.44,4.16,4.19,5.75,5.6,3.23,14.68,3.23,20.28,0,2.75-1.59,4.14-3.67,4.18-5.75A9.2,9.2,0,0,1,292.21,84.2Zm0,0c-5.82,3.36-15.26,3.36-21.1,0a9.291,9.291,0,0,1-3.77-3.69c.05,2.09,1.44,4.16,4.19,5.75,5.6,3.23,14.68,3.23,20.28,0,2.75-1.59,4.14-3.67,4.18-5.75A9.2,9.2,0,0,1,292.21,84.2Zm0,10.57c-5.82,3.37-15.26,3.37-21.1,0a9.274,9.274,0,0,1-3.77-3.68c.05,2.08,1.44,4.15,4.19,5.74a16.083,16.083,0,0,0,3.13,1.36,23.763,23.763,0,0,0,14.02,0,16.083,16.083,0,0,0,3.13-1.36c2.75-1.59,4.14-3.66,4.18-5.75A9.137,9.137,0,0,1,292.21,94.77Zm0,0c-5.82,3.37-15.26,3.37-21.1,0a9.274,9.274,0,0,1-3.77-3.68c.05,2.08,1.44,4.15,4.19,5.74a16.083,16.083,0,0,0,3.13,1.36,23.763,23.763,0,0,0,14.02,0,16.083,16.083,0,0,0,3.13-1.36c2.75-1.59,4.14-3.66,4.18-5.75A9.137,9.137,0,0,1,292.21,94.77Zm0-10.57c-5.82,3.36-15.26,3.36-21.1,0a9.291,9.291,0,0,1-3.77-3.69c.05,2.09,1.44,4.16,4.19,5.75,5.6,3.23,14.68,3.23,20.28,0,2.75-1.59,4.14-3.67,4.18-5.75A9.2,9.2,0,0,1,292.21,84.2Zm0,0c-5.82,3.36-15.26,3.36-21.1,0a9.291,9.291,0,0,1-3.77-3.69c.05,2.09,1.44,4.16,4.19,5.75,5.6,3.23,14.68,3.23,20.28,0,2.75-1.59,4.14-3.67,4.18-5.75A9.2,9.2,0,0,1,292.21,84.2Zm0,10.57c-5.82,3.37-15.26,3.37-21.1,0a9.274,9.274,0,0,1-3.77-3.68c.05,2.08,1.44,4.15,4.19,5.74a16.083,16.083,0,0,0,3.13,1.36,23.763,23.763,0,0,0,14.02,0,16.083,16.083,0,0,0,3.13-1.36c2.75-1.59,4.14-3.66,4.18-5.75A9.137,9.137,0,0,1,292.21,94.77Zm0,0c-5.82,3.37-15.26,3.37-21.1,0a9.274,9.274,0,0,1-3.77-3.68c.05,2.08,1.44,4.15,4.19,5.74a16.083,16.083,0,0,0,3.13,1.36,23.763,23.763,0,0,0,14.02,0,16.083,16.083,0,0,0,3.13-1.36c2.75-1.59,4.14-3.66,4.18-5.75A9.137,9.137,0,0,1,292.21,94.77Zm0-10.57c-5.82,3.36-15.26,3.36-21.1,0a9.291,9.291,0,0,1-3.77-3.69c.05,2.09,1.44,4.16,4.19,5.75,5.6,3.23,14.68,3.23,20.28,0,2.75-1.59,4.14-3.67,4.18-5.75A9.2,9.2,0,0,1,292.21,84.2Zm-20.68,2.06c5.6,3.23,14.68,3.23,20.28,0,2.75-1.59,4.14-3.67,4.18-5.75a9.2,9.2,0,0,1-3.78,3.69c-5.82,3.36-15.26,3.36-21.1,0a9.291,9.291,0,0,1-3.77-3.69C267.39,82.6,268.78,84.67,271.53,86.26Zm20.68,8.51c-5.82,3.37-15.26,3.37-21.1,0a9.274,9.274,0,0,1-3.77-3.68c.05,2.08,1.44,4.15,4.19,5.74a16.083,16.083,0,0,0,3.13,1.36,23.763,23.763,0,0,0,14.02,0,16.083,16.083,0,0,0,3.13-1.36c2.75-1.59,4.14-3.66,4.18-5.75A9.137,9.137,0,0,1,292.21,94.77ZM311.1,56.11H252.26a6.346,6.346,0,0,0-6.35,6.35v46.57c0,.22.01.44.03.65a6.355,6.355,0,0,0,6.32,5.71H311.1a6.38,6.38,0,0,0,4.52-1.88,6.545,6.545,0,0,0,1.81-3.83c.02-.21.03-.43.03-.65V62.46A6.355,6.355,0,0,0,311.1,56.11ZM296.63,99.25h-.05a5.005,5.005,0,0,1-.08.86,5.12,5.12,0,0,1-.46,1.42v.02c-.08.16-.16.31-.25.47a8.2,8.2,0,0,1-1.6,1.92,11.956,11.956,0,0,1-1.98,1.41c-.31.18-.62.34-.95.5a21.188,21.188,0,0,1-7.35,1.92,25.779,25.779,0,0,1-4.48,0,21.3,21.3,0,0,1-7.37-1.92c-.33-.16-.64-.32-.95-.5a12.184,12.184,0,0,1-1.96-1.41,7.87,7.87,0,0,1-1.61-1.92,5.491,5.491,0,0,1-.71-1.91,4.174,4.174,0,0,1-.08-.86V93.38a5.341,5.341,0,0,1,.57-2.34,5.45,5.45,0,0,1-.57-2.35V82.81a5.417,5.417,0,0,1,.57-2.35,5.383,5.383,0,0,1-.57-2.35V72.23c0-2.2,1.46-4.41,4.36-6.08,5.84-3.37,15.28-3.37,21.1,0,2.92,1.67,4.37,3.88,4.37,6.08h.05v5.88h-.05a5.221,5.221,0,0,1-.54,2.28v.02a.076.076,0,0,0-.02.05,5.4,5.4,0,0,1,.56,2.35h.05v5.88h-.05a5.105,5.105,0,0,1-.54,2.26v.03a.142.142,0,0,0-.02.06,5.327,5.327,0,0,1,.56,2.34h.05ZM292.21,84.2c-5.82,3.36-15.26,3.36-21.1,0a9.291,9.291,0,0,1-3.77-3.69c.05,2.09,1.44,4.16,4.19,5.75,5.6,3.23,14.68,3.23,20.28,0,2.75-1.59,4.14-3.67,4.18-5.75A9.2,9.2,0,0,1,292.21,84.2Zm0,10.57c-5.82,3.37-15.26,3.37-21.1,0a9.274,9.274,0,0,1-3.77-3.68c.05,2.08,1.44,4.15,4.19,5.74a16.083,16.083,0,0,0,3.13,1.36,23.763,23.763,0,0,0,14.02,0,16.083,16.083,0,0,0,3.13-1.36c2.75-1.59,4.14-3.66,4.18-5.75A9.137,9.137,0,0,1,292.21,94.77Zm0,0c-5.82,3.37-15.26,3.37-21.1,0a9.274,9.274,0,0,1-3.77-3.68c.05,2.08,1.44,4.15,4.19,5.74a16.083,16.083,0,0,0,3.13,1.36,23.763,23.763,0,0,0,14.02,0,16.083,16.083,0,0,0,3.13-1.36c2.75-1.59,4.14-3.66,4.18-5.75A9.137,9.137,0,0,1,292.21,94.77Zm0-10.57c-5.82,3.36-15.26,3.36-21.1,0a9.291,9.291,0,0,1-3.77-3.69c.05,2.09,1.44,4.16,4.19,5.75,5.6,3.23,14.68,3.23,20.28,0,2.75-1.59,4.14-3.67,4.18-5.75A9.2,9.2,0,0,1,292.21,84.2Zm0,0c-5.82,3.36-15.26,3.36-21.1,0a9.291,9.291,0,0,1-3.77-3.69c.05,2.09,1.44,4.16,4.19,5.75,5.6,3.23,14.68,3.23,20.28,0,2.75-1.59,4.14-3.67,4.18-5.75A9.2,9.2,0,0,1,292.21,84.2Zm0,10.57c-5.82,3.37-15.26,3.37-21.1,0a9.274,9.274,0,0,1-3.77-3.68c.05,2.08,1.44,4.15,4.19,5.74a16.083,16.083,0,0,0,3.13,1.36,23.763,23.763,0,0,0,14.02,0,16.083,16.083,0,0,0,3.13-1.36c2.75-1.59,4.14-3.66,4.18-5.75A9.137,9.137,0,0,1,292.21,94.77Zm0,0c-5.82,3.37-15.26,3.37-21.1,0a9.274,9.274,0,0,1-3.77-3.68c.05,2.08,1.44,4.15,4.19,5.74a16.083,16.083,0,0,0,3.13,1.36,23.763,23.763,0,0,0,14.02,0,16.083,16.083,0,0,0,3.13-1.36c2.75-1.59,4.14-3.66,4.18-5.75A9.137,9.137,0,0,1,292.21,94.77Zm0-10.57c-5.82,3.36-15.26,3.36-21.1,0a9.291,9.291,0,0,1-3.77-3.69c.05,2.09,1.44,4.16,4.19,5.75,5.6,3.23,14.68,3.23,20.28,0,2.75-1.59,4.14-3.67,4.18-5.75A9.2,9.2,0,0,1,292.21,84.2Zm0,0c-5.82,3.36-15.26,3.36-21.1,0a9.291,9.291,0,0,1-3.77-3.69c.05,2.09,1.44,4.16,4.19,5.75,5.6,3.23,14.68,3.23,20.28,0,2.75-1.59,4.14-3.67,4.18-5.75A9.2,9.2,0,0,1,292.21,84.2Zm0,10.57c-5.82,3.37-15.26,3.37-21.1,0a9.274,9.274,0,0,1-3.77-3.68c.05,2.08,1.44,4.15,4.19,5.74a16.083,16.083,0,0,0,3.13,1.36,23.763,23.763,0,0,0,14.02,0,16.083,16.083,0,0,0,3.13-1.36c2.75-1.59,4.14-3.66,4.18-5.75A9.137,9.137,0,0,1,292.21,94.77Zm0-10.57c-5.82,3.36-15.26,3.36-21.1,0a9.291,9.291,0,0,1-3.77-3.69c.05,2.09,1.44,4.16,4.19,5.75,5.6,3.23,14.68,3.23,20.28,0,2.75-1.59,4.14-3.67,4.18-5.75A9.2,9.2,0,0,1,292.21,84.2Zm0,0c-5.82,3.36-15.26,3.36-21.1,0a9.291,9.291,0,0,1-3.77-3.69c.05,2.09,1.44,4.16,4.19,5.75,5.6,3.23,14.68,3.23,20.28,0,2.75-1.59,4.14-3.67,4.18-5.75A9.2,9.2,0,0,1,292.21,84.2Z" fill="#fff"/>
                          </g>
                        </g>
                      </g>
                    </g>
                  </g>
                </g>
              </g>
              <g id="Group_139" data-name="Group 139" opacity="0.5">
                <g id="Group_138" data-name="Group 138">
                  <path id="Path_175" data-name="Path 175" d="M314.06,113.51a5.381,5.381,0,0,1-2.96.88H252.26a5.324,5.324,0,0,1-2.95-.88Z" fill="#008dd2" opacity="0.9"/>
                  <path id="Path_176" data-name="Path 176" d="M315.8,111.6a5.8,5.8,0,0,1-.89,1.21,5.648,5.648,0,0,1-.85.7H249.31a5.27,5.27,0,0,1-1.74-1.91Z" fill="#008dd2" opacity="0.8"/>
                  <path id="Path_177" data-name="Path 177" d="M316.42,109.68a5.164,5.164,0,0,1-.42,1.51c-.06.14-.13.28-.2.41H247.57c-.07-.13-.13-.26-.19-.4a5.27,5.27,0,0,1-.44-1.52Z" fill="#008dd2" opacity="0.7"/>
                  <path id="Path_178" data-name="Path 178" d="M316.46,107.77v1.26a5.11,5.11,0,0,1-.03.56c0,.03-.01.06-.01.09H246.94c0-.03-.01-.07-.01-.1-.01-.17-.02-.36-.02-.55v-1.26h27.32a24.349,24.349,0,0,0,5.11,1c.77.06,1.55.1,2.33.1s1.56-.04,2.33-.1a24.13,24.13,0,0,0,5.1-1Z" fill="#008dd2" opacity="0.6"/>
                  <path id="Path_179" data-name="Path 179" d="M274.23,107.77H246.91v-1.92h23.11c.19.13.38.25.58.36.34.2.67.37,1.02.54A18.39,18.39,0,0,0,274.23,107.77Z" fill="#008dd2" opacity="0.5"/>
                  <path id="Path_180" data-name="Path 180" d="M316.46,105.85v1.92H289.1a18.259,18.259,0,0,0,2.6-1.02c.35-.17.68-.34,1.01-.53.21-.12.4-.24.6-.37Z" fill="#008dd2" opacity="0.5"/>
                  <path id="Path_181" data-name="Path 181" d="M270.02,105.85H246.91v-1.91h20.82a8.985,8.985,0,0,0,.76.75A12.273,12.273,0,0,0,270.02,105.85Z" fill="#008dd2" opacity="0.4"/>
                  <path id="Path_182" data-name="Path 182" d="M316.46,103.94v1.91H293.31a12.766,12.766,0,0,0,1.55-1.16,8.71,8.71,0,0,0,.74-.75Z" fill="#008dd2" opacity="0.4"/>
                  <path id="Path_183" data-name="Path 183" d="M267.73,103.94H246.91v-1.92h19.5a4.965,4.965,0,0,0,.27.51A8.6,8.6,0,0,0,267.73,103.94Z" fill="#008dd2" opacity="0.3"/>
                  <path id="Path_184" data-name="Path 184" d="M316.46,102.02v1.92H295.6a8.6,8.6,0,0,0,1.05-1.41c.11-.19.19-.35.27-.51Z" fill="#008dd2" opacity="0.3"/>
                  <path id="Path_185" data-name="Path 185" d="M266.41,102.02h-19.5v-1.91h18.91a1.2,1.2,0,0,0,.03.2A6.347,6.347,0,0,0,266.41,102.02Z" fill="#008dd2" opacity="0.2"/>
                  <path id="Path_186" data-name="Path 186" d="M316.46,100.11v1.91H296.92c0-.01.01-.01.01-.02l.11-.21v-.04a6.48,6.48,0,0,0,.45-1.48v-.02h.09l.01-.14Z" fill="#008dd2" opacity="0.2"/>
                  <path id="Path_187" data-name="Path 187" d="M265.82,100.11H246.91V98.19h18.84v1.06A4.679,4.679,0,0,0,265.82,100.11Z" fill="#008dd2" opacity="0.1"/>
                  <path id="Path_188" data-name="Path 188" d="M316.46,98.19v1.92H297.59l.04-.86V98.19Z" fill="#008dd2" opacity="0.1"/>
                </g>
              </g>
              <g id="Group_144" data-name="Group 144">
                <g id="Group_143" data-name="Group 143">
                  <path id="Path_189" data-name="Path 189" d="M296.044,101.529v.018h-.009A.031.031,0,0,0,296.044,101.529Z" fill="#fff"/>
                  <path id="Path_190" data-name="Path 190" d="M266.749,93.38Z" fill="#fff"/>
                  <g id="Group_140" data-name="Group 140">
                    <path id="Path_191" data-name="Path 191" d="M295.99,91.08c-.045,2.088-1.431,4.158-4.185,5.751-5.6,3.231-14.679,3.231-20.277,0-2.745-1.593-4.14-3.663-4.185-5.742a9.222,9.222,0,0,0,3.771,3.681c5.832,3.366,15.273,3.366,21.1,0A9.21,9.21,0,0,0,295.99,91.08Z" fill="#fff"/>
                  </g>
                  <path id="Path_192" data-name="Path 192" d="M296.044,90.954v.027h-.009C296.035,90.972,296.044,90.963,296.044,90.954Z" fill="#fff"/>
                  <g id="Group_141" data-name="Group 141">
                    <path id="Path_193" data-name="Path 193" d="M295.99,80.514c-.045,2.079-1.431,4.158-4.185,5.742-5.6,3.231-14.679,3.231-20.277,0-2.745-1.584-4.14-3.654-4.185-5.742a9.238,9.238,0,0,0,3.771,3.69c5.832,3.357,15.273,3.357,21.1,0A9.264,9.264,0,0,0,295.99,80.514Z" fill="#fff"/>
                  </g>
                  <g id="Group_142" data-name="Group 142">
                    <path id="Path_194" data-name="Path 194" d="M296.4,70.952c-.046,2.079-1.472,4.158-4.306,5.742-5.759,3.231-15.1,3.231-20.861,0-2.824-1.584-4.259-3.654-4.3-5.742a9.374,9.374,0,0,0,3.88,3.69c6,3.357,15.712,3.357,21.7,0A9.41,9.41,0,0,0,296.4,70.952Z" fill="#fff"/>
                  </g>
                  <path id="Path_195" data-name="Path 195" d="M296.044,80.388v.018h-.009C296.035,80.4,296.044,80.4,296.044,80.388Z" fill="#fff"/>
                </g>
              </g>
            </g>
          </g>
          <g id="Group_174" data-name="Group 174">
            <g id="Group_147" data-name="Group 147">
              <path id="Path_196" data-name="Path 196" d="M554.3,248.593a2.042,2.042,0,1,1,2.809.668A2.042,2.042,0,0,1,554.3,248.593Z" fill="#fff"/>
              <path id="Path_197" data-name="Path 197" d="M538.659,248.593a2.041,2.041,0,1,1,2.809.668A2.041,2.041,0,0,1,538.659,248.593Z" fill="#fff"/>
              <path id="Path_198" data-name="Path 198" d="M523.014,248.593a2.042,2.042,0,1,1,2.81.668A2.042,2.042,0,0,1,523.014,248.593Z" fill="#fff"/>
              <path id="Path_199" data-name="Path 199" d="M585.592,248.593a2.041,2.041,0,1,1,2.809.668A2.041,2.041,0,0,1,585.592,248.593Z" fill="#fff"/>
              <path id="Path_200" data-name="Path 200" d="M569.948,248.593a2.041,2.041,0,1,1,2.809.668A2.041,2.041,0,0,1,569.948,248.593Z" fill="#fff"/>
              <path id="Path_201" data-name="Path 201" d="M601.236,248.593a2.042,2.042,0,1,1,2.809.668A2.042,2.042,0,0,1,601.236,248.593Z" fill="#fff"/>
              <path id="Path_202" data-name="Path 202" d="M616.881,248.593a2.041,2.041,0,1,1,2.809.668A2.041,2.041,0,0,1,616.881,248.593Z" fill="#fff"/>
              <path id="Path_203" data-name="Path 203" d="M632.525,248.593a2.042,2.042,0,1,1,2.809.668A2.042,2.042,0,0,1,632.525,248.593Z" fill="#fff"/>
            </g>
            <g id="Group_173" data-name="Group 173">
              <g id="Group_155" data-name="Group 155">
                <g id="Group_154" data-name="Group 154">
                  <g id="Group_153" data-name="Group 153">
                    <g id="Group_152" data-name="Group 152">
                      <g id="Group_151" data-name="Group 151">
                        <g id="Group_150" data-name="Group 150">
                          <g id="Group_149" data-name="Group 149">
                            <g id="Group_148" data-name="Group 148">
                              <path id="Path_204" data-name="Path 204" d="M671.83,236.83v1.27H683.5v-1.27Zm0,13.91V252H683.5v-1.26Zm0-4.07v1.27h21.16v-1.27Zm0,13.89v1.28h21.16v-1.28Zm0-21.27v1.28h25.61v-1.28Zm0,2.45v1.28h25.61v-1.28Zm0,2.46v1.28h25.61V244.2Zm0,8.99v1.27h25.61v-1.27Zm0,2.46v1.27h25.61v-1.27Zm0,2.46v1.27h25.61v-1.27Zm0,0v1.27h25.61v-1.27Zm0-2.46v1.27h25.61v-1.27Zm0-2.46v1.27h25.61v-1.27Zm0-8.99v1.28h25.61V244.2Zm0-2.46v1.28h25.61v-1.28Zm0-2.45v1.28h25.61v-1.28Zm0,21.27v1.28h21.16v-1.28Zm0-13.89v1.27h21.16v-1.27Zm0,4.07V252H683.5v-1.26Zm0-13.91v1.27H683.5v-1.27Zm0,0v1.27H683.5v-1.27Zm0,13.91V252H683.5v-1.26Zm0-4.07v1.27h21.16v-1.27Zm0,13.89v1.28h21.16v-1.28Zm0-21.27v1.28h25.61v-1.28Zm0,2.45v1.28h25.61v-1.28Zm0,2.46v1.28h25.61V244.2Zm0,8.99v1.27h25.61v-1.27Zm0,2.46v1.27h25.61v-1.27Zm0,2.46v1.27h25.61v-1.27Zm0,1.27h25.61v-1.27H671.83Zm0-2.46h25.61v-1.27H671.83Zm0-2.46h25.61v-1.27H671.83Zm0-8.98h25.61V244.2H671.83Zm0-2.46h25.61v-1.28H671.83Zm0-3.73v1.28h25.61v-1.28Zm0,22.55h21.16v-1.28H671.83Zm21.16-15.17H671.83v1.27h21.16Zm-9.49,4.07H671.83V252H683.5Zm0-13.91H671.83v1.27H683.5Zm31.15-18.95H655.81a6.355,6.355,0,0,0-6.36,6.35V270.8a6.09,6.09,0,0,0,.03.61,6.169,6.169,0,0,0,.49,1.92,6.4,6.4,0,0,0,5.84,3.83h58.84a6.4,6.4,0,0,0,5.83-3.83,6.167,6.167,0,0,0,.49-1.92,6.072,6.072,0,0,0,.03-.61V224.23A6.346,6.346,0,0,0,714.65,217.88ZM701.4,268.37a1.02,1.02,0,0,1-1.01,1.01H670.07a1.014,1.014,0,0,1-1.01-1.01V226.68a1.009,1.009,0,0,1,1.01-1.02h21.38l9.95,9.96Zm-29.57-8.99h25.61v-1.27H671.83Zm0-2.46h25.61v-1.27H671.83Zm0-2.46h25.61v-1.27H671.83Zm0-8.98h25.61V244.2H671.83Zm0-2.46h25.61v-1.28H671.83Zm0-2.45h25.61v-1.28H671.83Zm0,21.27h21.16v-1.28H671.83Zm21.16-15.17H671.83v1.27h21.16Zm-9.49,4.07H671.83V252H683.5Zm0-13.91H671.83v1.27H683.5Zm-11.67,0v1.27H683.5v-1.27Zm0,13.91V252H683.5v-1.26Zm0-4.07v1.27h21.16v-1.27Zm0,13.89v1.28h21.16v-1.28Zm0-21.27v1.28h25.61v-1.28Zm0,2.45v1.28h25.61v-1.28Zm0,2.46v1.28h25.61V244.2Zm0,8.99v1.27h25.61v-1.27Zm0,2.46v1.27h25.61v-1.27Zm0,2.46v1.27h25.61v-1.27Zm0,0v1.27h25.61v-1.27Zm0-2.46v1.27h25.61v-1.27Zm0-2.46v1.27h25.61v-1.27Zm0-8.99v1.28h25.61V244.2Zm0-2.46v1.28h25.61v-1.28Zm0-2.45v1.28h25.61v-1.28Zm0,21.27v1.28h21.16v-1.28Zm0-13.89v1.27h21.16v-1.27Zm0,4.07V252H683.5v-1.26Zm0-13.91v1.27H683.5v-1.27Z" fill="#fff"/>
                            </g>
                          </g>
                        </g>
                      </g>
                    </g>
                  </g>
                </g>
              </g>
              <g id="Group_157" data-name="Group 157" opacity="0.3">
                <g id="Group_156" data-name="Group 156">
                  <path id="Path_205" data-name="Path 205" d="M717.64,275.24a5.355,5.355,0,0,1-2.99.92H655.81a5.4,5.4,0,0,1-2.99-.92Z" fill="#008dd2" opacity="0.9"/>
                  <path id="Path_206" data-name="Path 206" d="M719.37,273.33a5.246,5.246,0,0,1-.89,1.21,5.572,5.572,0,0,1-.84.7H652.82a5.573,5.573,0,0,1-.84-.7,5.29,5.29,0,0,1-.9-1.21Z" fill="#008dd2" opacity="0.8"/>
                  <path id="Path_207" data-name="Path 207" d="M719.96,271.41a4.682,4.682,0,0,1-.4,1.52c-.06.14-.12.27-.19.4H651.08c-.07-.13-.13-.26-.19-.4a4.748,4.748,0,0,1-.4-1.52Z" fill="#008dd2" opacity="0.7"/>
                  <path id="Path_208" data-name="Path 208" d="M720,269.5v1.3a4.357,4.357,0,0,1-.03.51c0,.03-.01.07-.01.1H650.49a.277.277,0,0,1-.01-.09,4.676,4.676,0,0,1-.03-.52v-1.3h17.96a2.006,2.006,0,0,0,1.66.88h30.32a2.005,2.005,0,0,0,1.66-.88Z" fill="#008dd2" opacity="0.6"/>
                  <path id="Path_209" data-name="Path 209" d="M668.41,269.5H650.45v-1.92h17.61v.79A1.99,1.99,0,0,0,668.41,269.5Z" fill="#008dd2" opacity="0.5"/>
                  <path id="Path_210" data-name="Path 210" d="M720,267.58v1.92H702.05a1.99,1.99,0,0,0,.35-1.13v-.79Z" fill="#008dd2" opacity="0.5"/>
                  <rect id="Rectangle_36" data-name="Rectangle 36" width="17.61" height="1.91" transform="translate(650.45 265.67)" fill="#008dd2" opacity="0.4"/>
                  <rect id="Rectangle_37" data-name="Rectangle 37" width="17.6" height="1.91" transform="translate(702.4 265.67)" fill="#008dd2" opacity="0.4"/>
                  <rect id="Rectangle_38" data-name="Rectangle 38" width="17.61" height="1.92" transform="translate(650.45 263.75)" fill="#008dd2" opacity="0.3"/>
                  <rect id="Rectangle_39" data-name="Rectangle 39" width="17.6" height="1.92" transform="translate(702.4 263.75)" fill="#008dd2" opacity="0.3"/>
                  <rect id="Rectangle_40" data-name="Rectangle 40" width="17.61" height="1.91" transform="translate(650.45 261.84)" fill="#008dd2" opacity="0.2"/>
                  <rect id="Rectangle_41" data-name="Rectangle 41" width="17.6" height="1.91" transform="translate(702.4 261.84)" fill="#008dd2" opacity="0.2"/>
                  <rect id="Rectangle_42" data-name="Rectangle 42" width="17.61" height="1.92" transform="translate(650.45 259.92)" fill="#008dd2" opacity="0.1"/>
                  <rect id="Rectangle_43" data-name="Rectangle 43" width="21.16" height="1.28" transform="translate(671.83 260.56)" fill="#008dd2" opacity="0.1"/>
                  <rect id="Rectangle_44" data-name="Rectangle 44" width="17.6" height="1.92" transform="translate(702.4 259.92)" fill="#008dd2" opacity="0.1"/>
                </g>
              </g>
              <g id="Group_172" data-name="Group 172">
                <g id="Group_171" data-name="Group 171">
                  <g id="Group_158" data-name="Group 158">
                    <rect id="Rectangle_45" data-name="Rectangle 45" width="11.673" height="1.269" transform="translate(671.828 236.83)" fill="#fff"/>
                  </g>
                  <g id="Group_159" data-name="Group 159">
                    <rect id="Rectangle_46" data-name="Rectangle 46" width="11.673" height="1.269" transform="translate(671.828 250.735)" fill="#fff"/>
                  </g>
                  <g id="Group_160" data-name="Group 160">
                    <rect id="Rectangle_47" data-name="Rectangle 47" width="21.159" height="1.269" transform="translate(671.828 246.667)" fill="#fff"/>
                  </g>
                  <g id="Group_161" data-name="Group 161">
                    <rect id="Rectangle_48" data-name="Rectangle 48" width="21.159" height="1.278" transform="translate(671.828 260.563)" fill="#fff"/>
                  </g>
                  <g id="Group_162" data-name="Group 162">
                    <rect id="Rectangle_49" data-name="Rectangle 49" width="25.614" height="1.278" transform="translate(671.828 239.287)" fill="#fff"/>
                  </g>
                  <g id="Group_163" data-name="Group 163">
                    <rect id="Rectangle_50" data-name="Rectangle 50" width="25.614" height="1.278" transform="translate(671.828 241.744)" fill="#fff"/>
                  </g>
                  <g id="Group_164" data-name="Group 164">
                    <rect id="Rectangle_51" data-name="Rectangle 51" width="25.614" height="1.278" transform="translate(671.828 244.201)" fill="#fff"/>
                  </g>
                  <g id="Group_165" data-name="Group 165">
                    <rect id="Rectangle_52" data-name="Rectangle 52" width="25.614" height="1.269" transform="translate(671.828 253.192)" fill="#fff"/>
                  </g>
                  <g id="Group_166" data-name="Group 166">
                    <rect id="Rectangle_53" data-name="Rectangle 53" width="25.614" height="1.269" transform="translate(671.828 255.649)" fill="#fff"/>
                  </g>
                  <g id="Group_167" data-name="Group 167">
                    <rect id="Rectangle_54" data-name="Rectangle 54" width="25.614" height="1.278" transform="translate(671.828 258.106)" fill="#fff"/>
                  </g>
                  <g id="Group_168" data-name="Group 168">
                    <path id="Path_211" data-name="Path 211" d="M700.289,236.72h-8.937a1.008,1.008,0,0,1-1.008-1.017v-8.928Z" fill="#fff"/>
                  </g>
                  <g id="Group_169" data-name="Group 169">
                    <rect id="Rectangle_55" data-name="Rectangle 55" width="11.673" height="1.269" transform="translate(671.828 236.83)" fill="#fff"/>
                    <rect id="Rectangle_56" data-name="Rectangle 56" width="25.614" height="1.278" transform="translate(671.828 239.287)" fill="#fff"/>
                    <rect id="Rectangle_57" data-name="Rectangle 57" width="25.614" height="1.278" transform="translate(671.828 241.744)" fill="#fff"/>
                    <rect id="Rectangle_58" data-name="Rectangle 58" width="25.614" height="1.278" transform="translate(671.828 244.201)" fill="#fff"/>
                    <rect id="Rectangle_59" data-name="Rectangle 59" width="21.159" height="1.269" transform="translate(671.828 246.667)" fill="#fff"/>
                  </g>
                  <g id="Group_170" data-name="Group 170">
                    <rect id="Rectangle_60" data-name="Rectangle 60" width="11.673" height="1.269" transform="translate(671.828 250.735)" fill="#fff"/>
                    <rect id="Rectangle_61" data-name="Rectangle 61" width="25.614" height="1.269" transform="translate(671.828 253.192)" fill="#fff"/>
                    <rect id="Rectangle_62" data-name="Rectangle 62" width="25.614" height="1.269" transform="translate(671.828 255.649)" fill="#fff"/>
                    <rect id="Rectangle_63" data-name="Rectangle 63" width="25.614" height="1.278" transform="translate(671.828 258.106)" fill="#fff"/>
                    <rect id="Rectangle_64" data-name="Rectangle 64" width="21.159" height="1.278" transform="translate(671.828 260.563)" fill="#fff"/>
                  </g>
                </g>
              </g>
            </g>
          </g>
        </g>
      </g>
    </g>
    <g id="Group_177" data-name="Group 177" transform="translate(24 4)">
      <text id="HELLOSID" transform="translate(362 287)" fill="#fff" font-size="7" font-family="Istanbul"><tspan x="0" y="0">HELLOS</tspan><tspan y="0" font-size="4.083" baseline-shift="2.3330999097590297">ID</tspan></text>
      <text id="Powered_by" data-name="Powered by" transform="translate(307 287)" fill="#fff" font-size="9" font-family="Poppins-Regular, Poppins"><tspan x="0" y="0">Powered by</tspan></text>
    </g>
    <line id="Line_1" data-name="Line 1" x2="126" transform="translate(312.5 277.5)" fill="none" stroke="#fff" stroke-width="1"/>
  </g>
</svg>
