<svg class="animated" id="freepik_stories-vault" xmlns="http://www.w3.org/2000/svg" xmlns:xlink="http://www.w3.org/1999/xlink" viewBox="0 0 500 500" version="1.1" xmlns:svgjs="http://svgjs.com/svgjs"><style>svg#freepik_stories-vault:not(.animated) .animable {opacity: 0;}svg#freepik_stories-vault.animated #freepik--background-simple--inject-1--inject-3 {animation: 1s 1 forwards cubic-bezier(.36,-0.01,.5,1.38) lightSpeedRight;animation-delay: 0s;}svg#freepik_stories-vault.animated #freepik--Shadow--inject-1--inject-3 {animation: 1s 1 forwards cubic-bezier(.36,-0.01,.5,1.38) zoomOut;animation-delay: 0s;}svg#freepik_stories-vault.animated #freepik--Vault--inject-1--inject-3 {animation: 1s 1 forwards cubic-bezier(.36,-0.01,.5,1.38) slideDown;animation-delay: 0s;}svg#freepik_stories-vault.animated #freepik--Character--inject-1--inject-3 {animation: 1s 1 forwards cubic-bezier(.36,-0.01,.5,1.38) slideRight;animation-delay: 0s;}            @keyframes lightSpeedRight {              from {                transform: translate3d(50%, 0, 0) skewX(-20deg);                opacity: 0;              }              60% {                transform: skewX(10deg);                opacity: 1;              }              80% {                transform: skewX(-2deg);              }              to {                opacity: 1;                transform: translate3d(0, 0, 0);              }            }                    @keyframes zoomOut {                0% {                    opacity: 0;                    transform: scale(1.5);                }                100% {                    opacity: 1;                    transform: scale(1);                }            }                    @keyframes slideDown {                0% {                    opacity: 0;                    transform: translateY(-30px);                }                100% {                    opacity: 1;                    transform: translateY(0);                }            }                    @keyframes slideRight {                0% {                    opacity: 0;                    transform: translateX(30px);                }                100% {                    opacity: 1;                    transform: translateX(0);                }            }        .animator-hidden { display: none; }</style><!--Vault--><g id="freepik--background-simple--inject-1--inject-3" class="animable" style="transform-origin: 248.926px 237.416px;"><path d="M386.72,127.41c-21.44-18.8-43-38.74-66.9-53.88C281.4,49.19,227.53,40.09,192.45,75.3c-10.8,10.85-13,25.82-17.3,39.85-4.7,15.48-13.46,26.92-27.46,35.3-13,7.78-27.68,12.14-41.67,17.93-17.93,7.42-34.48,18.26-43,36.33-10.11,21.53-5.45,40.56,8.28,58.92C84.64,281.41,105,298,101.76,322.41c-1.36,10.43-5.57,20.23-8.9,30.2S87,373.27,89.24,383.55c7.19,33.6,59.15,42.32,86.3,31.17,47-19.3,93.3,7,140.66,8.07,33.29.76,76.49-8.74,86.61-45.52,8.71-31.63-22.53-66.55,1.9-94.15,19.07-21.54,37.52-49.16,35.4-79.27-2.07-29.23-24.37-51.41-45.34-69.44Q390.75,131,386.72,127.41Z" style="fill: #2D353C; transform-origin: 248.926px 237.416px;" id="elmppgf1nh4i" class="animable"></path><g id="elh2lgj9r05oj"><path d="M386.72,127.41c-21.44-18.8-43-38.74-66.9-53.88C281.4,49.19,227.53,40.09,192.45,75.3c-10.8,10.85-13,25.82-17.3,39.85-4.7,15.48-13.46,26.92-27.46,35.3-13,7.78-27.68,12.14-41.67,17.93-17.93,7.42-34.48,18.26-43,36.33-10.11,21.53-5.45,40.56,8.28,58.92C84.64,281.41,105,298,101.76,322.41c-1.36,10.43-5.57,20.23-8.9,30.2S87,373.27,89.24,383.55c7.19,33.6,59.15,42.32,86.3,31.17,47-19.3,93.3,7,140.66,8.07,33.29.76,76.49-8.74,86.61-45.52,8.71-31.63-22.53-66.55,1.9-94.15,19.07-21.54,37.52-49.16,35.4-79.27-2.07-29.23-24.37-51.41-45.34-69.44Q390.75,131,386.72,127.41Z" style="fill: rgb(255, 255, 255); opacity: 0.7; transform-origin: 248.926px 237.416px;" class="animable" id="el351a66wfxs"></path></g></g><g id="freepik--Shadow--inject-1--inject-3" class="animable" style="transform-origin: 178.26px 436.87px;"><ellipse cx="178.26" cy="436.87" rx="46.11" ry="9.22" style="fill: #2D353C; transform-origin: 178.26px 436.87px;" id="elujkl2rhkr4" class="animable"></ellipse><g id="elo5udvumxaf"><ellipse cx="178.26" cy="436.87" rx="46.11" ry="9.22" style="fill: rgb(255, 255, 255); opacity: 0.5; transform-origin: 178.26px 436.87px;" class="animable" id="elv3ige633zle"></ellipse></g></g><g id="freepik--Vault--inject-1--inject-3" class="animable" style="transform-origin: 256.37px 249.32px;"><g id="elzwc15hdjys"><circle cx="256.37" cy="249.32" r="139.85" style="fill: #2D353C; stroke: rgb(46, 53, 58); stroke-linecap: round; stroke-miterlimit: 10; transform-origin: 256.37px 249.32px; transform: rotate(-45deg);" class="animable" id="elhqwhn611fma"></circle></g><circle cx="256.37" cy="249.32" r="127.7" style="fill: rgb(46, 53, 58); stroke: rgb(46, 53, 58); stroke-linecap: round; stroke-miterlimit: 10; transform-origin: 256.37px 249.32px;" id="el8u2jtdsgw0l" class="animable"></circle><circle cx="256.37" cy="249.32" r="118.16" style="fill: rgb(255, 255, 255); stroke: rgb(46, 53, 58); stroke-linecap: round; stroke-miterlimit: 10; transform-origin: 256.37px 249.32px;" id="elc13czat78m" class="animable"></circle><path d="M256.37,142.49A106.84,106.84,0,1,0,363.21,249.32,106.83,106.83,0,0,0,256.37,142.49Zm0,205a98.21,98.21,0,1,1,98.21-98.21A98.21,98.21,0,0,1,256.37,347.53Z" style="fill: #2D353C; stroke: rgb(46, 53, 58); stroke-linecap: round; stroke-miterlimit: 10; transform-origin: 256.37px 249.33px;" id="elt1rpk6tt24" class="animable"></path><path d="M256.37,190.51a58.82,58.82,0,1,0,58.82,58.81A58.81,58.81,0,0,0,256.37,190.51Zm0,112.87a54.06,54.06,0,1,1,54.06-54.06A54.06,54.06,0,0,1,256.37,303.38Z" style="fill: #2D353C; stroke: rgb(46, 53, 58); stroke-linecap: round; stroke-miterlimit: 10; transform-origin: 256.37px 249.33px;" id="el43cdhbnxy8a" class="animable"></path><path d="M256.37,215.32a34,34,0,1,0,34,34A34,34,0,0,0,256.37,215.32Zm2.61,5.33a28.66,28.66,0,0,1,16.21,6.88L259,243.74Zm-5.21,23.09-16.21-16.21a28.63,28.63,0,0,1,16.21-6.88Zm-3.68,3.68H227.64a28.65,28.65,0,0,1,6.3-16.15Zm0,5.2-15.51,15.52a28.63,28.63,0,0,1-6.81-15.52Zm3.68,3.69V278a28.62,28.62,0,0,1-15.45-6.24Zm5.21,0,15.45,15.45A28.65,28.65,0,0,1,259,278Zm3.68-3.69H285a28.7,28.7,0,0,1-6.81,15.52Zm0-5.2,16.14-16.15a28.65,28.65,0,0,1,6.3,16.15Z" style="fill: #2D353C; stroke: rgb(46, 53, 58); stroke-linecap: round; stroke-miterlimit: 10; transform-origin: 256.37px 249.32px;" id="elq3jbmp2hp3" class="animable"></path><circle cx="256.37" cy="249.32" r="19.26" style="fill: rgb(255, 255, 255); stroke: rgb(46, 53, 58); stroke-linecap: round; stroke-miterlimit: 10; transform-origin: 256.37px 249.32px;" id="eltwm9eszygwl" class="animable"></circle><path d="M395.53,263.22c-142-44.15-239.41,23.76-265.8,45.48a139.87,139.87,0,0,0,265.8-45.48Z" style="fill: #2D353C; mix-blend-mode: multiply; transform-origin: 262.63px 318.882px;" id="elj4h1jlqagg" class="animable"></path><rect x="374.06" y="132.9" width="17.35" height="29.5" rx="7.4" style="fill: rgb(46, 53, 58); stroke: rgb(46, 53, 58); stroke-linecap: round; stroke-miterlimit: 10; transform-origin: 382.735px 147.65px;" id="elpr4hkzib7zi" class="animable"></rect><rect x="374.06" y="340.25" width="17.35" height="29.5" rx="7.4" style="fill: rgb(46, 53, 58); stroke: rgb(46, 53, 58); stroke-linecap: round; stroke-miterlimit: 10; transform-origin: 382.735px 355px;" id="el5rzxgfzs9qo" class="animable"></rect><rect x="247.7" y="132.9" width="17.35" height="29.5" rx="7.4" style="fill: rgb(46, 53, 58); stroke: rgb(46, 53, 58); stroke-linecap: round; stroke-miterlimit: 10; transform-origin: 256.375px 147.65px;" id="elff5vhklkas9" class="animable"></rect><rect x="247.7" y="340.25" width="17.35" height="29.5" rx="7.4" style="fill: rgb(46, 53, 58); stroke: rgb(46, 53, 58); stroke-linecap: round; stroke-miterlimit: 10; transform-origin: 256.375px 355px;" id="elt0eec5jvr4o" class="animable"></rect><circle cx="256.37" cy="99.63" r="2.82" style="fill: rgb(255, 255, 255); stroke: rgb(46, 53, 58); stroke-linecap: round; stroke-miterlimit: 10; transform-origin: 256.37px 99.63px;" id="el9lir1e26qti" class="animable"></circle><path d="M207.83,107.69a2.82,2.82,0,1,0-1.69,3.62A2.82,2.82,0,0,0,207.83,107.69Z" style="fill: rgb(255, 255, 255); stroke: rgb(46, 53, 58); stroke-linecap: round; stroke-miterlimit: 10; transform-origin: 205.181px 108.658px;" id="elshoqbqtcy09" class="animable"></path><path d="M162.31,132.84a2.82,2.82,0,1,0-.34,4A2.81,2.81,0,0,0,162.31,132.84Z" style="fill: rgb(255, 255, 255); stroke: rgb(46, 53, 58); stroke-linecap: round; stroke-miterlimit: 10; transform-origin: 160.168px 134.672px;" id="el0fakv6rqf3c" class="animable"></path><path d="M128.15,172a2.82,2.82,0,1,0,1,3.86A2.83,2.83,0,0,0,128.15,172Z" style="fill: rgb(255, 255, 255); stroke: rgb(46, 53, 58); stroke-linecap: round; stroke-miterlimit: 10; transform-origin: 126.718px 174.43px;" id="elwhdo5hrs" class="animable"></path><path d="M109.44,220.55a2.82,2.82,0,1,0,2.29,3.27A2.82,2.82,0,0,0,109.44,220.55Z" style="fill: rgb(255, 255, 255); stroke: rgb(46, 53, 58); stroke-linecap: round; stroke-miterlimit: 10; transform-origin: 108.953px 223.328px;" id="elgvtcl16keib" class="animable"></path><path d="M108.46,272.54a2.82,2.82,0,1,0,3.27,2.29A2.82,2.82,0,0,0,108.46,272.54Z" style="fill: rgb(255, 255, 255); stroke: rgb(46, 53, 58); stroke-linecap: round; stroke-miterlimit: 10; transform-origin: 108.952px 275.317px;" id="el3wpwliw6mwx" class="animable"></path><path d="M125.32,321.73a2.82,2.82,0,1,0,3.86,1A2.81,2.81,0,0,0,125.32,321.73Z" style="fill: rgb(255, 255, 255); stroke: rgb(46, 53, 58); stroke-linecap: round; stroke-miterlimit: 10; transform-origin: 126.75px 324.159px;" id="eloqevp9r3n0j" class="animable"></path><path d="M158,362.18a2.82,2.82,0,1,0,4-.35A2.82,2.82,0,0,0,158,362.18Z" style="fill: rgb(255, 255, 255); stroke: rgb(46, 53, 58); stroke-linecap: round; stroke-miterlimit: 10; transform-origin: 160.173px 363.978px;" id="elqzave07nc1p" class="animable"></path><path d="M202.52,389a2.82,2.82,0,1,0,3.62-1.69A2.81,2.81,0,0,0,202.52,389Z" style="fill: rgb(255, 255, 255); stroke: rgb(46, 53, 58); stroke-linecap: round; stroke-miterlimit: 10; transform-origin: 205.172px 389.957px;" id="el2gz2no5uic8" class="animable"></path><path d="M253.55,399a2.83,2.83,0,1,0,2.82-2.82A2.82,2.82,0,0,0,253.55,399Z" style="fill: rgb(255, 255, 255); stroke: rgb(46, 53, 58); stroke-linecap: round; stroke-miterlimit: 10; transform-origin: 256.38px 399.01px;" id="elp0feelk6p6s" class="animable"></path><path d="M304.92,391a2.82,2.82,0,1,0,1.69-3.62A2.82,2.82,0,0,0,304.92,391Z" style="fill: rgb(255, 255, 255); stroke: rgb(46, 53, 58); stroke-linecap: round; stroke-miterlimit: 10; transform-origin: 307.569px 390.032px;" id="elzqyngopgf6n" class="animable"></path><path d="M350.43,365.81a2.83,2.83,0,1,0,.35-4A2.82,2.82,0,0,0,350.43,365.81Z" style="fill: rgb(255, 255, 255); stroke: rgb(46, 53, 58); stroke-linecap: round; stroke-miterlimit: 10; transform-origin: 352.59px 363.984px;" id="elx85h6dxtpgc" class="animable"></path><path d="M384.6,326.62a2.82,2.82,0,1,0-1-3.86A2.83,2.83,0,0,0,384.6,326.62Z" style="fill: rgb(255, 255, 255); stroke: rgb(46, 53, 58); stroke-linecap: round; stroke-miterlimit: 10; transform-origin: 386.033px 324.19px;" id="elb2028qyxdr7" class="animable"></path><path d="M403.3,278.1a2.82,2.82,0,1,0-2.29-3.27A2.82,2.82,0,0,0,403.3,278.1Z" style="fill: rgb(255, 255, 255); stroke: rgb(46, 53, 58); stroke-linecap: round; stroke-miterlimit: 10; transform-origin: 403.787px 275.322px;" id="el4lea9m77qxv" class="animable"></path><path d="M404.28,226.11a2.82,2.82,0,1,0-3.27-2.29A2.82,2.82,0,0,0,404.28,226.11Z" style="fill: rgb(255, 255, 255); stroke: rgb(46, 53, 58); stroke-linecap: round; stroke-miterlimit: 10; transform-origin: 403.788px 223.333px;" id="elgqzl83wcfo5" class="animable"></path><path d="M387.42,176.92a2.82,2.82,0,1,0-3.85-1A2.82,2.82,0,0,0,387.42,176.92Z" style="fill: rgb(255, 255, 255); stroke: rgb(46, 53, 58); stroke-linecap: round; stroke-miterlimit: 10; transform-origin: 385.998px 174.485px;" id="el6fe1iw30xcb" class="animable"></path><path d="M354.76,136.47a2.83,2.83,0,1,0-4,.34A2.83,2.83,0,0,0,354.76,136.47Z" style="fill: rgb(255, 255, 255); stroke: rgb(46, 53, 58); stroke-linecap: round; stroke-miterlimit: 10; transform-origin: 352.591px 134.652px;" id="el0hlzeu6q69ga" class="animable"></path><path d="M310.22,109.62a2.82,2.82,0,1,0-3.61,1.69A2.81,2.81,0,0,0,310.22,109.62Z" style="fill: rgb(255, 255, 255); stroke: rgb(46, 53, 58); stroke-linecap: round; stroke-miterlimit: 10; transform-origin: 307.569px 108.66px;" id="elnx5agswdmlj" class="animable"></path><path d="M393.15,175.41V151.12H238.59v38.5h45a15.18,15.18,0,0,1,15.18,15.18v89.71a15.18,15.18,0,0,1-15.18,15.17h-45v41H393.15V326.37h-38.8a12.54,12.54,0,0,1-12.53-12.54V188a12.54,12.54,0,0,1,12.53-12.54Z" style="fill: rgb(255, 255, 255); stroke: rgb(46, 53, 58); stroke-linecap: round; stroke-miterlimit: 10; transform-origin: 315.87px 250.9px;" id="ely5819fnjyur" class="animable"></path><path d="M306.33,254.68v39.83a22.8,22.8,0,0,1-22.77,22.77H246.18v25.78H385.56V334H354.35a20.15,20.15,0,0,1-20.13-20.13V256.59A216.63,216.63,0,0,0,306.33,254.68Z" style="fill: #2D353C; transform-origin: 315.87px 298.87px;" id="elni9newm08og" class="animable"></path><path d="M246.18,173.47c18.61-5.2,44.26-10.67,78.53-14.75H246.18Z" style="fill: #2D353C; transform-origin: 285.445px 166.095px;" id="elvja37oftns" class="animable"></path><path d="M337.67,176.69c-15.42,3-29.6,6.19-41.53,9.14a22.79,22.79,0,0,1,10.19,19v10.85c9.64-4.49,19-8.5,27.89-12.06V188A20.08,20.08,0,0,1,337.67,176.69Z" style="fill: #2D353C; transform-origin: 316.905px 196.185px;" id="eleocijcr945p" class="animable"></path><line x1="255.51" y1="72.82" x2="255.51" y2="66.62" style="fill: none; stroke: rgb(46, 53, 58); stroke-linecap: round; stroke-miterlimit: 10; transform-origin: 255.51px 69.72px;" id="el45wf8b5ei8w" class="animable"></line><line x1="255.51" y1="91.69" x2="255.51" y2="76.5" style="fill: none; stroke: rgb(46, 53, 58); stroke-linecap: round; stroke-miterlimit: 10; transform-origin: 255.51px 84.095px;" id="elv94h5s46rw" class="animable"></line><line x1="255.51" y1="422.58" x2="255.51" y2="406.31" style="fill: none; stroke: rgb(46, 53, 58); stroke-linecap: round; stroke-miterlimit: 10; transform-origin: 255.51px 414.445px;" id="elw3fqkdvtqj" class="animable"></line><line x1="400.89" y1="250.08" x2="425.84" y2="250.08" style="fill: none; stroke: rgb(46, 53, 58); stroke-linecap: round; stroke-miterlimit: 10; transform-origin: 413.365px 250.08px;" id="el6a5nsqgsn6r" class="animable"></line><line x1="79.64" y1="250.08" x2="111.51" y2="250.08" style="fill: none; stroke: rgb(46, 53, 58); stroke-linecap: round; stroke-miterlimit: 10; transform-origin: 95.575px 250.08px;" id="elv7plrzgkms8" class="animable"></line><line x1="72.17" y1="250.08" x2="75.02" y2="250.08" style="fill: none; stroke: rgb(46, 53, 58); stroke-linecap: round; stroke-miterlimit: 10; transform-origin: 73.595px 250.08px;" id="ellull2t1awyh" class="animable"></line><line x1="431.27" y1="250.08" x2="437.09" y2="250.08" style="fill: none; stroke: rgb(46, 53, 58); stroke-linecap: round; stroke-miterlimit: 10; transform-origin: 434.18px 250.08px;" id="elv75oo8f0eu" class="animable"></line></g><g id="freepik--Character--inject-1--inject-3" class="animable animator-hidden" style="transform-origin: 182.771px 312.489px;"><path d="M197.3,432a44.62,44.62,0,0,1-5.85-2.93s10.82-53.78,11.22-71.44,2.81-54.21,2.81-54.21H157s2.41,36.54,2.81,54.21,9,71.44,9,71.44a45.05,45.05,0,0,1-5.86,2.93c-2.6,1-5.85,2.27-4.23,2.92a15.78,15.78,0,0,0,6.83.66,43.54,43.54,0,0,0,9.76-3.91c1.3-1,3-105.76,3-105.76h3.47s1.82,104.79,3.12,105.76a43.73,43.73,0,0,0,9.76,3.91,15.78,15.78,0,0,0,6.83-.66C203.15,434.3,199.9,433,197.3,432Z" style="fill: rgb(46, 53, 58); stroke: rgb(46, 53, 58); stroke-linecap: round; stroke-linejoin: round; transform-origin: 181.24px 369.559px;" id="elncqwbi3buxe" class="animable"></path><path d="M154,236.74a10.23,10.23,0,0,0-8.08,5.31c-2.71,5.09-4.07,29.16-3.05,31.88s3.39,5.42,8.13,1.69,5.09-7.46,5.09-7.46Z" style="fill: rgb(255, 255, 255); stroke: rgb(46, 53, 58); stroke-linecap: round; stroke-linejoin: round; transform-origin: 149.311px 257.094px;" id="elbb25ufkc6hd" class="animable"></path><path d="M209.11,236.18s7-1.25,8.38,4.18,7.12,21.36,5.09,27.8-9.84,6.11-15.26,2.71S209.11,236.18,209.11,236.18Z" style="fill: rgb(255, 255, 255); stroke: rgb(46, 53, 58); stroke-linecap: round; stroke-linejoin: round; transform-origin: 214.156px 254.658px;" id="ellcsi1h2c0p" class="animable"></path><polygon points="177.15 227.54 154.02 236.74 157.04 303.45 205.48 303.45 209.11 236.18 188.68 227.85 177.15 227.54" style="fill: rgb(255, 255, 255); stroke: rgb(46, 53, 58); stroke-linecap: round; stroke-linejoin: round; transform-origin: 181.565px 265.495px;" id="elfpjsm0k002" class="animable"></polygon><rect x="158.31" y="247.46" width="16.04" height="2.58" style="fill: rgb(46, 53, 58); stroke: rgb(46, 53, 58); stroke-linecap: round; stroke-linejoin: round; transform-origin: 166.33px 248.75px;" id="el1lcn7zp39jh" class="animable"></rect><rect x="189.53" y="247.46" width="16.04" height="2.58" style="fill: rgb(46, 53, 58); stroke: rgb(46, 53, 58); stroke-linecap: round; stroke-linejoin: round; transform-origin: 197.55px 248.75px;" id="ell5agsfi6i3k" class="animable"></rect><rect x="157.04" y="295.29" width="48.58" height="8.16" style="fill: rgb(46, 53, 58); stroke: rgb(46, 53, 58); stroke-linecap: round; stroke-linejoin: round; transform-origin: 181.33px 299.37px;" id="el3byt9mlercn" class="animable"></rect><rect x="177.81" y="294.95" width="7.8" height="4.41" style="fill: rgb(255, 255, 255); stroke: rgb(46, 53, 58); stroke-linecap: round; stroke-miterlimit: 10; transform-origin: 181.71px 297.155px;" id="elwpcp1vgmt8e" class="animable"></rect><polygon points="186.38 236.6 181.93 234.56 178.55 236.15 181.35 245.28 176.58 293.81 181.1 298.68 186.38 293.61 183.16 245.28 186.38 236.6" style="fill: #2D353C; transform-origin: 181.48px 266.62px;" id="elwdo3wucuqu" class="animable"></polygon><polygon points="192.65 229.88 209.97 236.25 207.6 240 191.83 234.48 192.65 229.88" style="fill: rgb(46, 53, 58); stroke: rgb(46, 53, 58); stroke-linecap: round; stroke-linejoin: round; transform-origin: 200.9px 234.94px;" id="el7fp3qv5ja22" class="animable"></polygon><path d="M179.51,237l-6.44,6.11s-3.73-10.51-3.73-12.21,4.4-6.78,4.4-6.78l16.62-.34,6.1,7.46-5.08,11.53-7.12-5.43Z" style="fill: rgb(255, 255, 255); stroke: rgb(46, 53, 58); stroke-linecap: round; stroke-linejoin: round; transform-origin: 182.9px 233.445px;" id="elq0qi4ywb6z" class="animable"></path><polygon points="169.34 230.86 152.01 237.24 154.38 240.99 170.15 235.47 169.34 230.86" style="fill: rgb(46, 53, 58); stroke: rgb(46, 53, 58); stroke-linecap: round; stroke-linejoin: round; transform-origin: 161.08px 235.925px;" id="el2b4dtokspoo" class="animable"></polygon><polygon points="191.2 232.25 182.65 239.73 174.28 232.25 174.28 212.31 191.2 212.31 191.2 232.25" style="fill: rgb(255, 255, 255); transform-origin: 182.74px 226.02px;" id="elm69i09nm0m" class="animable"></polygon><g style="clip-path: url(&quot;#freepik--clip-path--inject-1--inject-3&quot;); transform-origin: 182.61px 225.79px;" id="elym1o4ebpik" class="animable"><polygon points="174.02 225.17 180.08 232.2 185.6 232.2 191.2 226.02 190.66 220.16 174.28 219.38 174.02 225.17" style="fill: #2D353C; mix-blend-mode: multiply; transform-origin: 182.61px 225.79px;" id="elpqa6y3t8r3a" class="animable"></polygon></g><polygon points="191.2 232.25 182.65 239.73 174.28 232.25 174.28 212.31 191.2 212.31 191.2 232.25" style="fill: none; stroke: rgb(46, 53, 58); stroke-linecap: round; stroke-linejoin: round; transform-origin: 182.74px 226.02px;" id="el2e3hbaucmmn" class="animable"></polygon><path d="M172.45,207s-3.13-.82-2.82,1.37,1.26,6.28,2.82,7.22l1.57.94Z" style="fill: rgb(255, 255, 255); stroke: rgb(46, 53, 58); stroke-linecap: round; stroke-linejoin: round; transform-origin: 171.814px 211.69px;" id="el04vu9qa73l8l" class="animable"></path><path d="M193.45,207s3.14-.82,2.82,1.37-1.25,6.28-2.82,7.22l-1.57.94Z" style="fill: rgb(255, 255, 255); stroke: rgb(46, 53, 58); stroke-linecap: round; stroke-linejoin: round; transform-origin: 194.086px 211.69px;" id="elejvluygz0vg" class="animable"></path><path d="M194.93,203.37A11.92,11.92,0,1,0,171.66,207l3,14.27,5.54,7.78h5.35l5.38-6.78,3.29-14.94A11.88,11.88,0,0,0,194.93,203.37Z" style="fill: rgb(255, 255, 255); stroke: rgb(46, 53, 58); stroke-linecap: round; stroke-linejoin: round; transform-origin: 183.01px 210.244px;" id="elhhrbcw23h3l" class="animable"></path><path d="M174,205.74s1.91-2.07,3.64-1.38,1.05,2.77,6.06,3.29a18.77,18.77,0,0,0,8.37-.88l.27-4.34L174,199.86Z" style="fill: #2D353C; transform-origin: 183.17px 203.824px;" id="elft8zrt8tdsc" class="animable"></path><path d="M192.36,202.43a15.24,15.24,0,0,0-1.25,4.71c0,1.88,1.57,5.64,1.57,5.64s3.76-7.84,3.45-10.66S192.05,201.49,192.36,202.43Z" style="fill: rgb(46, 53, 58); stroke: rgb(46, 53, 58); stroke-linecap: round; stroke-linejoin: round; transform-origin: 193.629px 206.755px;" id="el7lrg0eykehp" class="animable"></path><path d="M172.6,212.16s0-.49.08-1.22c.18-2,.65-5.93,1.8-6.63,1.57-.94,1.41-5.88,1.41-5.88s-2.19,2.47,5.34,5,13.64,1.53,17.72-3.8.31-9.1-.31-7.22-1.89,4.4-4.08,2.51-5.65-5.64-11.92-5.64-9.1,5.64-9.1,5.64a6.17,6.17,0,0,0-3.45,5.34C170.09,204,172.6,212.16,172.6,212.16Z" style="fill: rgb(46, 53, 58); stroke: rgb(46, 53, 58); stroke-linecap: round; stroke-linejoin: round; transform-origin: 185.456px 200.72px;" id="elo704jxma0bl" class="animable"></path><path d="M194.67,202.23c-4.44.18-8.22-2.81-12.08-5.45s-6.47,0-6.47,0a6.66,6.66,0,0,1,6.14-5.29c5.24-.34,7,6.86,11.83,7.49" style="fill: none; stroke: rgb(255, 255, 255); stroke-linecap: round; stroke-linejoin: round; stroke-width: 0.5px; transform-origin: 185.395px 196.858px;" id="el62l0g54tdzd" class="animable"></path><path d="M182.15,211.9H171.66l1.11,3.46a1.63,1.63,0,0,0,1.55,1.13h5.42a1.62,1.62,0,0,0,1.57-1.23Z" style="fill: rgb(46, 53, 58); stroke: rgb(46, 53, 58); stroke-linecap: round; stroke-linejoin: round; transform-origin: 176.905px 214.195px;" id="el9h9e6mo7l8" class="animable"></path><path d="M193.8,211.9H183.3l1.11,3.46a1.63,1.63,0,0,0,1.55,1.13h5.42a1.63,1.63,0,0,0,1.58-1.23Z" style="fill: rgb(46, 53, 58); stroke: rgb(46, 53, 58); stroke-linecap: round; stroke-linejoin: round; transform-origin: 188.55px 214.195px;" id="el5223s1tfq3l" class="animable"></path><line x1="171.66" y1="211.9" x2="171.13" y2="206.77" style="fill: rgb(255, 255, 255); stroke: rgb(46, 53, 58); stroke-linecap: round; stroke-linejoin: round; transform-origin: 171.395px 209.335px;" id="elq8ihsjl06ga" class="animable"></line><line x1="193.8" y1="211.9" x2="194.99" y2="207.03" style="fill: rgb(255, 255, 255); stroke: rgb(46, 53, 58); stroke-linecap: round; stroke-linejoin: round; transform-origin: 194.395px 209.465px;" id="elubk5mj14j9" class="animable"></line><line x1="182.15" y1="211.9" x2="183.3" y2="211.9" style="fill: rgb(255, 255, 255); stroke: rgb(46, 53, 58); stroke-linecap: round; stroke-linejoin: round; transform-origin: 182.725px 211.9px;" id="elg9p0cmeaf3h" class="animable"></line><line x1="181.86" y1="213.53" x2="183.72" y2="213.53" style="fill: rgb(255, 255, 255); stroke: rgb(46, 53, 58); stroke-linecap: round; stroke-linejoin: round; transform-origin: 182.79px 213.53px;" id="elbk46fvi1l05" class="animable"></line><path d="M184.91,220.16s-.79,1.19-1.72,1.19-1.72-1.19-1.72-1.19" style="fill: none; stroke: rgb(46, 53, 58); stroke-linecap: round; stroke-linejoin: round; transform-origin: 183.19px 220.755px;" id="eli9alieep8w9" class="animable"></path><path d="M156.79,298.34s-8.48,3.73-8.48,6.11,2.71,17.63,4.41,21,3.05,4.75,6.1,2.71S156.79,298.34,156.79,298.34Z" style="fill: rgb(46, 53, 58); stroke: rgb(46, 53, 58); stroke-linecap: round; stroke-linejoin: round; transform-origin: 154.053px 313.727px;" id="elzkvcis9wcxi" class="animable"></path><rect x="204.94" y="290.54" width="4.75" height="29.5" style="fill: rgb(46, 53, 58); stroke: rgb(46, 53, 58); stroke-linecap: round; stroke-linejoin: round; transform-origin: 207.315px 305.29px;" id="elh0y9dfwaizv" class="animable"></rect><rect x="202.57" y="284.44" width="9.49" height="8.82" style="fill: rgb(46, 53, 58); stroke: rgb(46, 53, 58); stroke-linecap: round; stroke-linejoin: round; transform-origin: 207.315px 288.85px;" id="ele9wrz1zprjr" class="animable"></rect><path d="M222.24,262.74s2,7.46-3.06,10.17c-1.91,1-10.85-.68-21.36-3.39s-16.28-4.75-16.28-4.75l-29.5-.68s-2.71-5.42,1.36-8.48,19,1.36,19,1.36l30.52.68s6.44-3,15.26-.34" style="fill: rgb(255, 255, 255); stroke: rgb(46, 53, 58); stroke-linecap: round; stroke-linejoin: round; transform-origin: 186.893px 263.866px;" id="elha3itgawekc" class="animable"></path><path d="M148,264.77s7.12-5.76,12.55-7.8,35.61-2.71,35.61-2.71,8.47,2.71,6.78,3.39-8.48,1.36-11.53,2.71-20.69,13.57-42,16.62c-4.68.67-5.77.34-6.78-4.41" style="fill: rgb(255, 255, 255); stroke: rgb(46, 53, 58); stroke-linecap: round; stroke-linejoin: round; transform-origin: 172.897px 265.751px;" id="elxvpzaehssfb" class="animable"></path><polygon points="191.25 254.62 191.82 259.49 193.83 259.49 194.11 254.34 191.25 254.62" style="fill: rgb(46, 53, 58); stroke: rgb(46, 53, 58); stroke-linecap: round; stroke-linejoin: round; transform-origin: 192.68px 256.915px;" id="elim4oyjvnv18" class="animable"></polygon></g><defs><clipPath id="freepik--clip-path--inject-1--inject-3"><polygon points="191.2 232.25 182.65 239.73 174.28 232.25 174.28 212.31 191.2 212.31 191.2 232.25" style="fill:#fff;stroke:#2e353a;stroke-linecap:round;stroke-linejoin:round"></polygon></clipPath></defs><defs>     <filter id="active" height="200%">         <feMorphology in="SourceAlpha" result="DILATED" operator="dilate" radius="2"></feMorphology>                <feFlood flood-color="#32DFEC" flood-opacity="1" result="PINK"></feFlood>        <feComposite in="PINK" in2="DILATED" operator="in" result="OUTLINE"></feComposite>        <feMerge>            <feMergeNode in="OUTLINE"></feMergeNode>            <feMergeNode in="SourceGraphic"></feMergeNode>        </feMerge>    </filter>    <filter id="hover" height="200%">        <feMorphology in="SourceAlpha" result="DILATED" operator="dilate" radius="2"></feMorphology>                <feFlood flood-color="#ff0000" flood-opacity="0.5" result="PINK"></feFlood>        <feComposite in="PINK" in2="DILATED" operator="in" result="OUTLINE"></feComposite>        <feMerge>            <feMergeNode in="OUTLINE"></feMergeNode>            <feMergeNode in="SourceGraphic"></feMergeNode>        </feMerge>            <feColorMatrix type="matrix" values="0   0   0   0   0                0   1   0   0   0                0   0   0   0   0                0   0   0   1   0 "></feColorMatrix>    </filter></defs></svg>